<svg width="20" height="21" viewBox="0 0 20 21" fill="none" xmlns="http://www.w3.org/2000/svg">
<path d="M6.65806 1.92376L6.51529 2.06607L7.86024 3.40676L8.003 3.26445L6.65806 1.92376Z" fill="white"/>
<path d="M12.3829 1.92297L11.0379 3.26366L11.1807 3.40597L12.5256 2.06529L12.3829 1.92297Z" fill="white"/>
<path d="M9.62759 1H9.42569V2.89601H9.62759V1Z" fill="white"/>
<path d="M18.92 12.5166C18.8015 11.2934 18.5775 10.0827 18.2504 8.89791C18.0844 8.30907 17.6956 6.92916 16.6991 6.92916C16.5643 6.92824 16.4308 6.95553 16.3072 7.00924C16.1835 7.06296 16.0726 7.14191 15.9815 7.24101C15.5825 7.77993 15.3601 8.42853 15.3448 9.09817C15.2779 8.81023 15.2069 8.53425 15.1339 8.27321C14.968 7.68438 14.5792 6.30446 13.5827 6.30446C13.4479 6.30355 13.3143 6.33083 13.1907 6.38454C13.0671 6.43826 12.9562 6.51721 12.8651 6.61631C12.7281 6.7649 12.6182 6.93618 12.5402 7.12245C12.0035 6.59539 11.4768 6.07929 10.933 5.56319C10.8861 5.51836 10.8401 5.47352 10.7951 5.42868C10.5612 5.14707 10.2478 4.94194 9.89556 4.83985C9.70147 4.79243 9.49925 4.78847 9.30344 4.82827C9.10763 4.86806 8.92311 4.95062 8.76313 5.07001C8.61497 5.18679 8.4899 5.33005 8.39432 5.49245C8.20042 5.30514 8.00851 5.12082 7.81261 4.9355C7.76564 4.89067 7.71966 4.84583 7.67468 4.801C7.44068 4.51943 7.12733 4.31431 6.77513 4.21217C6.58104 4.16474 6.37882 4.16078 6.18301 4.20058C5.9872 4.24037 5.80267 4.32293 5.6427 4.44232C5.49892 4.55024 5.37931 4.68689 5.29154 4.84353C5.20376 5.00016 5.14975 5.17333 5.13296 5.35197C5.12167 5.55841 5.15579 5.76482 5.23291 5.95674L5.00402 5.73356C4.6512 5.39282 3.57874 4.35663 2.6632 5.26927C2.53569 5.38315 2.43306 5.52197 2.3617 5.67709C2.29034 5.83222 2.25177 6.00033 2.24841 6.17095C2.37127 6.83046 2.73749 7.42017 3.27489 7.82386C3.18149 7.79451 3.08481 7.77677 2.98704 7.77106C2.78872 7.75838 2.59004 7.78948 2.40518 7.86216C2.22031 7.93484 2.05382 8.0473 1.91758 8.19151C1.7554 8.3657 1.64321 8.58015 1.59274 8.81241C1.54227 9.04466 1.55539 9.28617 1.63072 9.51164C1.77482 9.87428 2.01029 10.1938 2.31438 10.4392L2.42032 10.5389C2.53427 10.6495 2.64721 10.762 2.76015 10.8746C2.57407 10.7946 2.37308 10.7549 2.17045 10.7581C2.00553 10.7656 1.84411 10.808 1.69693 10.8826C1.54975 10.9571 1.42019 11.0621 1.31688 11.1905C1.10417 11.4438 0.991648 11.7659 1.00048 12.0962C1.00932 12.4265 1.1389 12.7421 1.36485 12.9838C1.75867 13.4735 2.18901 13.9328 2.65221 14.3578C2.81013 14.5102 2.98904 14.6836 3.15196 14.856L3.64271 15.3541L3.67969 15.392C4.60223 16.3375 5.55575 17.3139 6.57823 18.1727C6.93129 18.4773 7.3195 18.7389 7.73465 18.9519C8.1703 19.1678 8.64176 19.3028 9.12595 19.3504C9.54096 19.3908 9.95955 19.375 10.3703 19.3036C10.5252 19.4046 10.6857 19.4967 10.8511 19.5796C11.2867 19.7955 11.7582 19.9305 12.2424 19.9781C12.3903 19.993 12.5422 20 12.6932 20C13.0978 19.9991 13.5008 19.9475 13.8926 19.8466C14.9197 19.552 15.8709 19.0398 16.6812 18.3451C17.5238 17.7241 18.19 16.8952 18.6142 15.94C18.9865 14.8391 19.0913 13.6657 18.92 12.5166ZM2.22842 10.9224H2.34536L2.40233 10.9314H2.42332L2.48829 10.9464H2.50028L2.57325 10.9673C2.80477 11.0472 3.0208 11.1662 3.21192 11.319L3.54576 11.6528C4.30737 12.409 5.08298 13.1722 5.8506 13.9204C5.85795 13.9283 5.86695 13.9346 5.87695 13.9387C5.88696 13.9428 5.89775 13.9447 5.90857 13.9443C5.91934 13.9444 5.93002 13.9423 5.93997 13.9382C5.94993 13.9341 5.95896 13.928 5.96654 13.9204C5.97416 13.9128 5.9802 13.9038 5.98432 13.8939C5.98844 13.884 5.99056 13.8733 5.99056 13.8626C5.99056 13.8519 5.98844 13.8413 5.98432 13.8313C5.9802 13.8214 5.97416 13.8124 5.96654 13.8048C5.68368 13.5249 5.40282 13.2429 5.11997 12.9589C4.56724 12.404 3.99553 11.8291 3.42082 11.2801C3.42082 11.2801 3.38284 11.2443 3.32587 11.1994L3.21792 11.0908C2.99503 10.8667 2.76415 10.6335 2.52927 10.4054L2.42132 10.3057C2.1386 10.0782 1.9182 9.78311 1.78064 9.44788C1.71387 9.25033 1.70165 9.03852 1.74526 8.83465C1.78887 8.63077 1.88671 8.44236 2.02852 8.28915C2.08088 8.2359 2.13773 8.18724 2.19843 8.14368L2.23342 8.11678C2.44976 7.97024 2.70907 7.9001 2.97005 7.91752C3.1435 7.93807 3.31116 7.99267 3.46333 8.07818C3.61549 8.16368 3.74916 8.27839 3.8566 8.41568L7.35484 11.87L7.37683 11.8969C7.52775 12.0752 7.58872 12.135 7.65669 12.135C7.6729 12.135 7.68876 12.1302 7.70224 12.1212C7.71573 12.1122 7.72624 12.0995 7.73244 12.0845C7.73865 12.0696 7.74027 12.0532 7.73711 12.0373C7.73394 12.0215 7.72613 12.0069 7.71466 11.9955L7.47278 11.7574L7.4418 11.7235L5.23791 9.53157C4.93806 9.2247 4.63121 8.91982 4.33836 8.62491L4.30737 8.59403L3.89658 8.18951C3.80463 8.09785 3.70268 8.00221 3.59673 7.90058C3.07499 7.40939 2.42532 6.79764 2.41633 6.17294C2.41946 6.02401 2.4537 5.87737 2.51686 5.74236C2.58001 5.60736 2.6707 5.48696 2.78314 5.38883C3.58274 4.59177 4.57024 5.54227 4.89408 5.85511C5.058 6.01353 5.28588 6.23771 5.56774 6.51767L9.33185 10.3037C9.33943 10.3114 9.34846 10.3174 9.35841 10.3215C9.36837 10.3256 9.37904 10.3277 9.38982 10.3276C9.41139 10.3269 9.43197 10.3184 9.44779 10.3037C9.45541 10.2961 9.46145 10.2871 9.46557 10.2772C9.46969 10.2673 9.47181 10.2567 9.47181 10.2459C9.47181 10.2352 9.46969 10.2246 9.46557 10.2147C9.46145 10.2047 9.45541 10.1957 9.44779 10.1882L9.4358 10.1762C9.036 9.7697 6.97004 7.67641 5.68968 6.40509C5.43995 6.11601 5.3005 5.74838 5.29588 5.36691C5.31128 5.21011 5.35932 5.05824 5.43694 4.921C5.51456 4.78375 5.62004 4.66416 5.74665 4.56985C5.88719 4.4659 6.04901 4.39414 6.22057 4.35969C6.39213 4.32525 6.5692 4.32897 6.73915 4.37058C7.06127 4.46792 7.34742 4.65785 7.56174 4.91657C7.60771 4.9624 7.65469 5.00823 7.70167 5.05307C8.26838 5.59009 8.81211 6.12313 9.41181 6.71395C9.70566 7.00289 10.0015 7.30079 10.2884 7.58973C10.8991 8.20446 11.5297 8.84012 12.1874 9.43194L12.2194 9.45984L12.2514 9.48873L12.2594 9.48175C12.2769 9.48571 12.2952 9.4836 12.3113 9.47578C12.3258 9.46897 12.338 9.45807 12.3464 9.44444C12.3547 9.4308 12.3589 9.41502 12.3583 9.39906C12.3583 9.39906 12.3583 9.32433 12.3583 9.20677C12.3385 8.4668 12.4747 7.73093 12.7581 7.04672C12.8184 6.92948 12.8948 6.82118 12.985 6.72491C13.061 6.64187 13.1537 6.57564 13.257 6.53051C13.3603 6.48537 13.4719 6.46233 13.5847 6.46288C14.4573 6.46288 14.8221 7.7581 14.978 8.31306C15.3024 9.48742 15.5248 10.6875 15.6427 11.8998C15.8091 13.0234 15.7064 14.1702 15.3428 15.2465C14.9288 16.1756 14.2795 16.9814 13.4588 17.5849C12.669 18.2642 11.7418 18.7661 10.7401 19.0565C10.2207 19.1919 9.6814 19.235 9.14694 19.184C8.68235 19.139 8.22986 19.01 7.81161 18.8034C7.40802 18.5963 7.03056 18.3421 6.68718 18.0462C5.66769 17.1933 4.71717 16.2189 3.79763 15.2764L3.76265 15.2405L3.2699 14.7374C3.10298 14.569 2.92207 14.3947 2.76215 14.2392C2.30765 13.8222 1.88502 13.3719 1.49779 12.8922C1.29197 12.6806 1.17238 12.4003 1.16222 12.1057C1.15207 11.8111 1.25207 11.5233 1.44281 11.2981C1.53044 11.1885 1.64008 11.0984 1.7647 11.0335C1.88932 10.9687 2.02616 10.9305 2.16645 10.9214H2.23342L2.22842 10.9224ZM12.1924 9.21972C11.5777 8.65878 10.982 8.059 10.4053 7.47814C10.1195 7.1902 9.8236 6.8913 9.52875 6.60236C9.17793 6.25763 8.84609 5.93183 8.51926 5.615C8.60417 5.4534 8.72155 5.31096 8.86408 5.19654C9.00477 5.0925 9.16676 5.0207 9.3385 4.98626C9.51023 4.95181 9.68748 4.95558 9.85758 4.99728C10.1797 5.09461 10.4659 5.28454 10.6802 5.54326C10.7261 5.5891 10.7731 5.63493 10.8201 5.67976C11.3718 6.20284 11.8966 6.71694 12.4743 7.28485C12.2778 7.90976 12.1827 8.56192 12.1924 9.21673V9.21972ZM10.7831 19.2199C11.8075 18.9239 12.7559 18.4115 13.5637 17.7174C14.4065 17.0965 15.0727 16.2676 15.4967 15.3123C15.8689 14.2113 15.9738 13.0381 15.8026 11.8889C15.7266 11.1436 15.6167 10.4073 15.4748 9.69696C15.4385 8.86857 15.6561 8.04881 16.0984 7.34662C16.1745 7.26358 16.2671 7.19735 16.3704 7.15222C16.4737 7.10708 16.5854 7.08404 16.6981 7.08459C16.7766 7.08459 16.8547 7.09565 16.93 7.11746C16.9785 7.13155 17.0257 7.14989 17.071 7.17226C17.1856 7.23054 17.2892 7.30844 17.3768 7.40242C17.7265 7.85393 17.9709 8.37737 18.0924 8.93477C18.4168 10.1091 18.6392 11.3092 18.7571 12.5216C18.9237 13.6451 18.8209 14.7919 18.4573 15.8682C18.0434 16.7972 17.3945 17.603 16.5742 18.2066C15.7844 18.8859 14.8572 19.3878 13.8556 19.6782C13.3361 19.8137 12.7968 19.8568 12.2624 19.8057C11.8005 19.7651 11.3498 19.6416 10.932 19.4411C10.8321 19.3893 10.7221 19.3315 10.6152 19.2677C10.6742 19.2547 10.7301 19.2418 10.7841 19.2278" fill="white"/>
<path d="M10.7831 19.2199C11.8075 18.9239 12.7559 18.4115 13.5637 17.7174C14.4065 17.0965 15.0727 16.2676 15.4967 15.3123C15.8689 14.2113 15.9738 13.0381 15.8026 11.8889C15.7266 11.1436 15.6167 10.4073 15.4748 9.69696C15.4385 8.86857 15.6561 8.04881 16.0984 7.34662C16.1745 7.26358 16.2671 7.19735 16.3704 7.15222C16.4737 7.10708 16.5854 7.08404 16.6981 7.08459C16.7766 7.08459 16.8547 7.09565 16.93 7.11746C16.9785 7.13155 17.0257 7.14989 17.071 7.17226C17.1856 7.23054 17.2892 7.30844 17.3768 7.40242C17.7265 7.85393 17.9709 8.37737 18.0924 8.93477C18.4168 10.1091 18.6392 11.3092 18.7571 12.5216C18.9237 13.6451 18.8209 14.7919 18.4573 15.8682C18.0434 16.7972 17.3945 17.603 16.5742 18.2066C15.7844 18.8859 14.8572 19.3878 13.8556 19.6782C13.3361 19.8137 12.7968 19.8568 12.2624 19.8057C11.8005 19.7651 11.3498 19.6416 10.932 19.4411C10.8321 19.3893 10.7221 19.3315 10.6152 19.2677C10.6742 19.2547 10.7301 19.2418 10.7841 19.2278M6.65806 1.92376L6.51529 2.06607L7.86024 3.40676L8.003 3.26445L6.65806 1.92376ZM12.3829 1.92297L11.0379 3.26366L11.1807 3.40597L12.5256 2.06529L12.3829 1.92297ZM9.62759 1H9.42569V2.89601H9.62759V1ZM18.92 12.5166C18.8015 11.2934 18.5775 10.0827 18.2504 8.89791C18.0844 8.30908 17.6956 6.92916 16.6991 6.92916C16.5643 6.92824 16.4308 6.95553 16.3072 7.00924C16.1835 7.06296 16.0726 7.14191 15.9815 7.24101C15.5825 7.77993 15.3601 8.42853 15.3448 9.09817C15.2779 8.81023 15.2069 8.53425 15.1339 8.27321C14.968 7.68438 14.5792 6.30446 13.5827 6.30446C13.4479 6.30355 13.3143 6.33083 13.1907 6.38454C13.0671 6.43826 12.9562 6.51721 12.8651 6.61631C12.7281 6.7649 12.6182 6.93618 12.5402 7.12245C12.0035 6.59539 11.4768 6.07929 10.933 5.56319C10.8861 5.51836 10.8401 5.47352 10.7951 5.42868C10.5612 5.14707 10.2478 4.94194 9.89556 4.83985C9.70147 4.79243 9.49925 4.78847 9.30344 4.82827C9.10763 4.86806 8.92311 4.95062 8.76313 5.07001C8.61497 5.18679 8.4899 5.33005 8.39432 5.49245C8.20042 5.30514 8.00851 5.12082 7.81261 4.9355C7.76563 4.89067 7.71966 4.84583 7.67468 4.801C7.44068 4.51943 7.12733 4.31431 6.77513 4.21217C6.58104 4.16474 6.37882 4.16078 6.18301 4.20058C5.9872 4.24037 5.80267 4.32293 5.6427 4.44232C5.49892 4.55024 5.37931 4.68689 5.29154 4.84353C5.20376 5.00016 5.14975 5.17333 5.13296 5.35197C5.12167 5.55841 5.15579 5.76482 5.23291 5.95674L5.00402 5.73356C4.6512 5.39282 3.57874 4.35663 2.6632 5.26927C2.53569 5.38315 2.43306 5.52197 2.3617 5.67709C2.29034 5.83222 2.25177 6.00033 2.24841 6.17095C2.37127 6.83046 2.73749 7.42017 3.27489 7.82386C3.18149 7.79451 3.08481 7.77677 2.98704 7.77106C2.78872 7.75838 2.59004 7.78948 2.40518 7.86216C2.22031 7.93484 2.05382 8.0473 1.91758 8.19151C1.7554 8.3657 1.64321 8.58015 1.59274 8.81241C1.54227 9.04466 1.55539 9.28617 1.63072 9.51164C1.77482 9.87428 2.01029 10.1938 2.31438 10.4392L2.42032 10.5389C2.53427 10.6495 2.64721 10.762 2.76015 10.8746C2.57407 10.7946 2.37308 10.7549 2.17045 10.7581C2.00553 10.7656 1.84411 10.808 1.69693 10.8826C1.54975 10.9571 1.42019 11.0621 1.31688 11.1905C1.10417 11.4438 0.991648 11.7659 1.00048 12.0962C1.00932 12.4265 1.1389 12.7421 1.36485 12.9838C1.75867 13.4735 2.18901 13.9328 2.65221 14.3578C2.81013 14.5102 2.98904 14.6836 3.15196 14.856L3.64271 15.3541L3.67969 15.392C4.60223 16.3375 5.55575 17.3139 6.57823 18.1727C6.93129 18.4773 7.3195 18.7389 7.73465 18.9519C8.1703 19.1678 8.64176 19.3028 9.12595 19.3504C9.54096 19.3908 9.95955 19.375 10.3703 19.3036C10.5252 19.4046 10.6857 19.4967 10.8511 19.5796C11.2867 19.7955 11.7582 19.9305 12.2424 19.9781C12.3903 19.993 12.5422 20 12.6932 20C13.0978 19.9991 13.5008 19.9475 13.8926 19.8466C14.9197 19.552 15.8709 19.0398 16.6812 18.3451C17.5238 17.7241 18.19 16.8952 18.6142 15.94C18.9865 14.8391 19.0913 13.6657 18.92 12.5166ZM2.22842 10.9224L2.23342 10.9214H2.16645C2.02616 10.9305 1.88932 10.9687 1.7647 11.0335C1.64008 11.0984 1.53044 11.1885 1.44281 11.2981C1.25207 11.5233 1.15207 11.8111 1.16222 12.1057C1.17238 12.4003 1.29197 12.6806 1.49779 12.8922C1.88502 13.3719 2.30765 13.8222 2.76215 14.2392C2.92207 14.3947 3.10298 14.569 3.2699 14.7374L3.76265 15.2405L3.79763 15.2764C4.71717 16.2189 5.66769 17.1933 6.68718 18.0462C7.03056 18.3421 7.40802 18.5963 7.81161 18.8034C8.22986 19.01 8.68235 19.139 9.14694 19.184C9.6814 19.235 10.2207 19.1919 10.7401 19.0565C11.7418 18.7661 12.669 18.2642 13.4588 17.5849C14.2795 16.9814 14.9288 16.1756 15.3428 15.2465C15.7064 14.1702 15.8091 13.0234 15.6427 11.8998C15.5248 10.6875 15.3024 9.48742 14.978 8.31306C14.8221 7.7581 14.4573 6.46288 13.5847 6.46288C13.4719 6.46233 13.3603 6.48537 13.257 6.53051C13.1537 6.57564 13.061 6.64187 12.985 6.72491C12.8948 6.82118 12.8184 6.92948 12.7581 7.04672C12.4747 7.73093 12.3385 8.4668 12.3583 9.20677C12.3583 9.32433 12.3583 9.39906 12.3583 9.39906C12.3589 9.41502 12.3547 9.4308 12.3464 9.44443C12.338 9.45807 12.3258 9.46897 12.3113 9.47578C12.2952 9.4836 12.2769 9.48571 12.2594 9.48175L12.2514 9.48873L12.2194 9.45984L12.1874 9.43194C11.5297 8.84012 10.8991 8.20446 10.2884 7.58973C10.0015 7.30079 9.70566 7.00289 9.41181 6.71395C8.81211 6.12313 8.26838 5.59009 7.70167 5.05307C7.65469 5.00824 7.60771 4.9624 7.56174 4.91657C7.34742 4.65785 7.06127 4.46792 6.73915 4.37058C6.5692 4.32897 6.39213 4.32525 6.22057 4.35969C6.04901 4.39414 5.88719 4.4659 5.74665 4.56985C5.62004 4.66416 5.51456 4.78375 5.43694 4.921C5.35932 5.05824 5.31128 5.21011 5.29588 5.36691C5.3005 5.74838 5.43995 6.11601 5.68968 6.40509C6.97003 7.67641 9.036 9.7697 9.4358 10.1762L9.44779 10.1882C9.45541 10.1957 9.46145 10.2047 9.46557 10.2147C9.46969 10.2246 9.47181 10.2352 9.47181 10.2459C9.47181 10.2567 9.46969 10.2673 9.46557 10.2772C9.46145 10.2871 9.45541 10.2961 9.44779 10.3037C9.43197 10.3184 9.41139 10.3269 9.38982 10.3276C9.37905 10.3277 9.36837 10.3256 9.35842 10.3215C9.34846 10.3174 9.33943 10.3114 9.33185 10.3037L5.56774 6.51767C5.28588 6.23771 5.058 6.01353 4.89408 5.85511C4.57024 5.54227 3.58274 4.59177 2.78314 5.38883C2.6707 5.48696 2.58001 5.60736 2.51686 5.74236C2.4537 5.87737 2.41946 6.02401 2.41633 6.17294C2.42532 6.79764 3.07499 7.40939 3.59673 7.90058C3.70268 8.00221 3.80463 8.09785 3.89658 8.18951L4.30737 8.59403L4.33836 8.62491C4.63121 8.91982 4.93806 9.2247 5.23791 9.53157L7.4418 11.7235L7.47278 11.7574L7.71466 11.9955C7.72613 12.0069 7.73394 12.0215 7.73711 12.0373C7.74027 12.0532 7.73865 12.0696 7.73244 12.0845C7.72624 12.0995 7.71573 12.1122 7.70224 12.1212C7.68876 12.1302 7.6729 12.135 7.65669 12.135C7.58872 12.135 7.52775 12.0752 7.37683 11.8969L7.35484 11.87L3.8566 8.41568C3.74916 8.27839 3.61549 8.16368 3.46333 8.07818C3.31116 7.99267 3.1435 7.93807 2.97005 7.91752C2.70907 7.9001 2.44976 7.97024 2.23342 8.11678L2.19843 8.14368C2.13773 8.18724 2.08088 8.2359 2.02852 8.28915C1.88671 8.44236 1.78887 8.63077 1.74526 8.83465C1.70165 9.03852 1.71387 9.25033 1.78064 9.44788C1.9182 9.78311 2.1386 10.0782 2.42132 10.3057L2.52927 10.4054C2.76415 10.6335 2.99503 10.8667 3.21792 11.0908L3.32587 11.1994C3.38284 11.2443 3.42082 11.2801 3.42082 11.2801C3.99553 11.8291 4.56724 12.404 5.11997 12.9589C5.40282 13.2429 5.68368 13.5249 5.96654 13.8048C5.97416 13.8124 5.9802 13.8214 5.98432 13.8313C5.98844 13.8413 5.99056 13.8519 5.99056 13.8626C5.99056 13.8733 5.98844 13.884 5.98432 13.8939C5.9802 13.9038 5.97416 13.9128 5.96654 13.9204C5.95896 13.928 5.94993 13.9341 5.93997 13.9382C5.93002 13.9423 5.91934 13.9444 5.90857 13.9443C5.89775 13.9447 5.88696 13.9428 5.87695 13.9387C5.86695 13.9346 5.85795 13.9283 5.8506 13.9204C5.08298 13.1722 4.30737 12.409 3.54576 11.6528L3.21192 11.319C3.0208 11.1662 2.80477 11.0472 2.57325 10.9673L2.50028 10.9464H2.48829L2.42332 10.9314H2.40233L2.34536 10.9224H2.22842ZM12.1924 9.21972C11.5777 8.65879 10.982 8.059 10.4053 7.47814C10.1195 7.1902 9.8236 6.8913 9.52875 6.60236C9.17792 6.25763 8.84609 5.93183 8.51926 5.615C8.60417 5.4534 8.72155 5.31096 8.86408 5.19654C9.00477 5.09251 9.16676 5.0207 9.3385 4.98626C9.51023 4.95181 9.68748 4.95558 9.85758 4.99728C10.1797 5.09461 10.4659 5.28454 10.6802 5.54326C10.7261 5.5891 10.7731 5.63493 10.8201 5.67976C11.3718 6.20283 11.8966 6.71694 12.4743 7.28485C12.2778 7.90976 12.1827 8.56192 12.1924 9.21673V9.21972Z" stroke="white" stroke-width="0.5"/>
</svg>
