<svg width="26" height="26" viewBox="0 0 26 26" fill="none" xmlns="http://www.w3.org/2000/svg">
<path d="M24.6611 14.8839C24.9558 14.8234 25 14.7697 25 14.4713V11.5268C25 11.2121 24.9664 11.1727 24.6496 11.1093L22.3917 10.6536C22.2768 10.642 22.1699 10.5898 22.0899 10.5065C22.0099 10.4231 21.9621 10.3139 21.9551 10.1986C21.9436 10.0574 21.9111 9.9187 21.859 9.78693C21.7198 9.45872 21.5711 9.13532 21.4165 8.79655L21.1564 8.22064L22.5963 6.05665C22.7547 5.81769 22.7489 5.76211 22.5502 5.56345C21.8513 4.85968 21.1518 4.16065 20.4517 3.46647C20.2328 3.24766 20.2002 3.24368 19.941 3.41258L19.6532 3.60471C19.0993 3.96459 18.5472 4.3243 17.9971 4.69186C17.9062 4.7637 17.7931 4.80197 17.6772 4.79987C17.5614 4.79777 17.4498 4.75547 17.3615 4.68038C16.9094 4.34177 16.3792 4.12254 15.8199 4.04308C15.6965 4.03378 15.5803 3.9818 15.4913 3.89594C15.4023 3.81008 15.3459 3.69575 15.3322 3.57284C15.2112 2.95 15.0855 2.32544 14.9607 1.70548L14.881 1.31584C14.8273 1.04424 14.7726 1 14.4971 1C13.5084 1 12.5195 1 11.5308 1C11.2226 1 11.1738 1.02304 11.1066 1.36949C10.9597 2.12477 10.8098 2.87902 10.6524 3.63142C10.633 3.7237 10.5886 3.80884 10.5239 3.87743C10.4592 3.94602 10.3768 3.99542 10.2858 4.02012C9.62918 4.12803 9.00886 4.39496 8.47908 4.79753L8.32557 4.91257L6.10121 3.42523C5.8257 3.24193 5.76727 3.24571 5.53592 3.47795L3.48826 5.5337C3.25883 5.76498 3.25398 5.82143 3.44022 6.1007L3.69849 6.49432C4.02968 6.99816 4.36088 7.50181 4.69782 8.00181C4.76906 8.09219 4.80774 8.20398 4.80774 8.31905C4.80774 8.43412 4.76906 8.54591 4.69782 8.63629C4.3648 9.0958 4.14428 9.62693 4.05379 10.1871C4.04189 10.3103 3.98738 10.4257 3.89981 10.5133C3.81224 10.6008 3.69707 10.6551 3.57381 10.667C2.98247 10.7812 2.39099 10.9011 1.79966 11.0191L1.31967 11.1152C1.03169 11.1728 1.00096 11.2178 1 11.5163V14.4607C1 14.7717 1.04225 14.8224 1.34944 14.8858L2.22597 15.068C2.68483 15.164 3.14471 15.26 3.60357 15.356C3.7138 15.3698 3.81612 15.4201 3.89442 15.4989C3.97271 15.5777 4.02243 15.6806 4.03551 15.7909C4.1369 16.3596 4.36047 16.8995 4.69103 17.3733C4.76371 17.4638 4.80329 17.5764 4.80329 17.6924C4.80329 17.8085 4.76371 17.9211 4.69103 18.0115C4.37232 18.4751 4.06042 18.9434 3.74747 19.4117L3.41725 19.903C3.23582 20.1756 3.24158 20.2447 3.46717 20.4712L5.49373 22.4864C5.77116 22.7609 5.7999 22.7668 6.12628 22.5509L8.31784 21.0999L8.46947 21.2083C8.96457 21.5848 9.54209 21.8384 10.1543 21.9482C10.2833 21.9608 10.4041 22.017 10.4965 22.1078C10.5889 22.1986 10.6472 22.3184 10.662 22.4471C10.813 23.2065 10.9703 23.9645 11.1335 24.7207C11.1853 24.9626 11.2294 25 11.478 25C12.4956 25 13.5134 25 14.5316 25C14.761 25 14.8253 24.9712 14.881 24.7006L15.0193 24.0288C15.1326 23.4808 15.2448 22.9318 15.3514 22.3829C15.3648 22.2748 15.4147 22.1745 15.4927 22.0984C15.5707 22.0224 15.6721 21.9751 15.7805 21.9644C16.3556 21.8722 16.9013 21.6463 17.3733 21.3051C17.457 21.2361 17.5619 21.198 17.6704 21.1971C17.779 21.1962 17.8844 21.2328 17.9693 21.3004C18.4598 21.6334 18.9542 21.9616 19.4486 22.2899L19.9037 22.5921C20.1687 22.7687 20.2434 22.7601 20.4709 22.5317L22.5021 20.4904C22.746 20.2448 22.75 20.2082 22.5647 19.9251L22.2603 19.4635C21.9396 18.975 21.6201 18.4875 21.2956 18.0029C21.2272 17.9153 21.1899 17.8073 21.1899 17.6962C21.1899 17.5851 21.2272 17.4773 21.2956 17.3897C21.6402 16.9203 21.8679 16.3755 21.9598 15.8005C21.9719 15.6879 22.0219 15.5826 22.1016 15.5022C22.1813 15.4218 22.2861 15.3709 22.3985 15.3579C22.8699 15.2619 23.3411 15.1661 23.8115 15.0702L24.6611 14.8839ZM21.8696 14.9289C21.7903 14.9335 21.7151 14.9659 21.6572 15.0202C21.5993 15.0746 21.5625 15.1476 21.5529 15.2264C21.5126 15.4184 21.4751 15.6104 21.4376 15.8023C21.3417 16.2767 21.1452 16.7248 20.8616 17.117L20.7809 17.2332C20.4757 17.6689 20.4757 17.6689 20.8588 18.2332C21.1285 18.6295 21.3897 19.0307 21.646 19.4232L22.0885 20.0949L20.1139 22.1017L17.9357 20.6622C17.6554 20.476 17.6554 20.4788 17.4164 20.6544C16.7853 21.1272 16.0424 21.4289 15.2602 21.5298C15.0865 21.5519 14.9722 21.6179 14.9223 21.877C14.8503 22.2811 14.7697 22.6832 14.69 23.0862C14.6257 23.4077 14.5605 23.7302 14.4981 24.0537C14.4885 24.1789 14.43 24.2954 14.3354 24.3782C14.2408 24.4609 14.1175 24.5032 13.9921 24.496H13.9796C13.4584 24.4883 12.9372 24.4904 12.4082 24.4904H11.6154L11.1766 22.3599C11.1478 22.216 11.1199 22.0721 11.0892 21.9281C11.022 21.6133 10.9932 21.5863 10.6505 21.5134C10.2541 21.4425 9.8651 21.3359 9.48803 21.1947C9.21369 21.0706 8.95352 20.9171 8.71228 20.7369L8.57892 20.6411C8.50891 20.5798 8.4191 20.546 8.32604 20.546C8.23299 20.546 8.14317 20.5798 8.07316 20.6411C7.60662 20.9578 7.13519 21.2667 6.66673 21.5757L5.88137 22.094L3.86559 20.116L4.37135 19.3482C4.69582 18.8549 5.02047 18.3617 5.35358 17.8752C5.38275 17.8466 5.40573 17.8126 5.42155 17.7749C5.43737 17.7373 5.44569 17.6967 5.44569 17.6559C5.44569 17.615 5.43737 17.5747 5.42155 17.5371C5.40573 17.4994 5.38275 17.4652 5.35358 17.4366C4.84963 16.8049 4.53447 16.0439 4.44447 15.241C4.41952 15.0337 4.37725 14.9749 4.10558 14.9193L1.91192 14.4713C1.86488 14.4617 1.81604 14.4491 1.76708 14.4347L1.49826 14.3647V11.5873L4.10066 11.0585C4.39921 10.9961 4.4146 10.9625 4.44916 10.7187C4.54908 9.94303 4.85211 9.2075 5.32757 8.58638C5.39377 8.51416 5.42977 8.41934 5.42834 8.32139C5.42691 8.22344 5.38811 8.1297 5.31983 8.05944C5.004 7.59303 4.69601 7.12184 4.39362 6.65927L3.8827 5.87999L5.87575 3.88962L6.62361 4.37813C7.09015 4.68043 7.56335 4.98748 8.02605 5.30994C8.10518 5.38847 8.2122 5.43248 8.3237 5.43248C8.43519 5.43248 8.54199 5.38847 8.62111 5.30994C9.22668 4.83136 9.95435 4.53221 10.7215 4.44631C10.9384 4.4204 11.0317 4.3272 11.0759 4.09111C11.2093 3.38094 11.3639 2.67563 11.5146 1.9693L11.5366 1.87323C11.555 1.77893 11.6024 1.69291 11.6723 1.62699C11.7422 1.56106 11.8311 1.51872 11.9264 1.50585C12.5235 1.49818 13.1206 1.4981 13.7254 1.49906H14.3973L14.7929 3.4482C14.8409 3.68556 14.8871 3.92317 14.9319 4.16117C14.9684 4.35311 15.0548 4.40407 15.1805 4.4271C15.3063 4.45013 15.4513 4.47799 15.5867 4.50582L15.8525 4.56042C16.3906 4.68494 16.8948 4.92648 17.329 5.26777C17.6515 5.49521 17.6514 5.49329 17.9922 5.26777L20.1043 3.8772L22.0943 5.87132L21.9734 6.05571C21.8544 6.23614 21.7343 6.42131 21.6144 6.60749C21.3264 7.05854 21.0239 7.52594 20.6984 7.97603C20.6529 8.01933 20.6166 8.07129 20.5918 8.12903C20.567 8.18677 20.5543 8.24895 20.5543 8.31178C20.5543 8.37462 20.567 8.4368 20.5918 8.49454C20.6166 8.55228 20.6529 8.60447 20.6984 8.64777C21.1621 9.24561 21.4475 9.96218 21.522 10.715C21.5527 10.9511 21.5989 10.998 21.8475 11.0479L22.1201 11.1028C22.7662 11.2314 23.4132 11.3598 24.0611 11.4807C24.1244 11.4866 24.186 11.505 24.2421 11.5348C24.2981 11.5646 24.3478 11.6052 24.3881 11.6543C24.4283 11.7034 24.4584 11.7601 24.4767 11.8209C24.4949 11.8817 24.5009 11.9454 24.4942 12.0086C24.4846 12.6567 24.4846 13.3058 24.4942 13.9558C24.5003 14.0171 24.4941 14.0788 24.4762 14.1376C24.4583 14.1965 24.4289 14.2514 24.3897 14.2988C24.3505 14.3463 24.3023 14.3856 24.2479 14.4143C24.1935 14.4431 24.1341 14.4607 24.0728 14.4664C23.7433 14.5303 23.4142 14.5969 23.0859 14.666C22.6895 14.7658 22.2795 14.8502 21.8696 14.9289Z" fill="white"/>
<path d="M13.0006 7.52985C12.282 7.5284 11.57 7.66842 10.9056 7.94198C10.2412 8.21555 9.6373 8.61732 9.12817 9.12426C8.61904 9.63119 8.21485 10.2334 7.93853 10.8965C7.66221 11.5596 7.51906 12.2707 7.51761 12.989C7.51616 13.7074 7.65621 14.419 7.92986 15.0832C8.2035 15.7474 8.60539 16.3511 9.11247 16.8601C9.61954 17.3691 10.2219 17.7734 10.8852 18.0497C11.5485 18.3259 12.2598 18.4688 12.9783 18.4702H12.9966C13.718 18.4716 14.4324 18.3298 15.0986 18.0532C15.7648 17.7766 16.3695 17.3708 16.8777 16.859C17.6397 16.0929 18.1577 15.1184 18.3664 14.0584C18.5751 12.9984 18.4652 11.9002 18.0505 10.9026C17.6358 9.90497 16.9348 9.05244 16.0361 8.45252C15.1374 7.85261 14.0812 7.53229 13.0006 7.53172V7.52985ZM16.491 16.5354C16.0367 16.9878 15.4976 17.3464 14.9046 17.5904C14.3116 17.8345 13.6763 17.9594 13.035 17.9578H12.9804C12.3205 17.9589 11.6671 17.8279 11.0586 17.5726C10.4502 17.3173 9.89898 16.9428 9.43753 16.4712C8.97609 15.9996 8.61355 15.4404 8.37164 14.8266C8.12972 14.2129 8.01313 13.5569 8.02876 12.8974C8.03929 12.2452 8.17959 11.6015 8.44148 11.004C8.70337 10.4066 9.08172 9.86717 9.55425 9.41737C10.5024 8.51862 11.7664 8.02925 13.0728 8.05515C14.3791 8.08105 15.6228 8.62021 16.5346 9.55584C17.4464 10.4915 17.9529 11.7484 17.9448 13.0546C17.9366 14.3609 17.4144 15.6112 16.491 16.5354Z" fill="white"/>
<path d="M24.6611 14.8839C24.9558 14.8234 25 14.7697 25 14.4713V11.5268C25 11.2121 24.9664 11.1727 24.6496 11.1093L22.3917 10.6536C22.2768 10.642 22.1699 10.5898 22.0899 10.5065C22.0099 10.4231 21.9621 10.3139 21.9551 10.1986C21.9436 10.0574 21.9111 9.9187 21.859 9.78693C21.7198 9.45872 21.5711 9.13532 21.4165 8.79655L21.1564 8.22064L22.5963 6.05665C22.7547 5.81769 22.7489 5.76211 22.5502 5.56345C21.8513 4.85968 21.1518 4.16065 20.4517 3.46647C20.2328 3.24766 20.2002 3.24368 19.941 3.41258L19.6532 3.60471C19.0993 3.96459 18.5472 4.3243 17.9971 4.69186C17.9062 4.7637 17.7931 4.80197 17.6772 4.79987C17.5614 4.79777 17.4498 4.75547 17.3615 4.68038C16.9094 4.34177 16.3792 4.12254 15.8199 4.04308C15.6965 4.03378 15.5803 3.9818 15.4913 3.89594C15.4023 3.81008 15.3459 3.69575 15.3322 3.57284C15.2112 2.95 15.0855 2.32544 14.9607 1.70548L14.881 1.31584C14.8273 1.04424 14.7726 1 14.4971 1C13.5084 1 12.5195 1 11.5308 1C11.2226 1 11.1738 1.02304 11.1066 1.36949C10.9597 2.12477 10.8098 2.87902 10.6524 3.63142C10.633 3.7237 10.5886 3.80884 10.5239 3.87743C10.4592 3.94602 10.3768 3.99542 10.2858 4.02012C9.62918 4.12803 9.00886 4.39496 8.47908 4.79753L8.32557 4.91257L6.10121 3.42523C5.8257 3.24193 5.76727 3.24571 5.53592 3.47795L3.48826 5.5337C3.25883 5.76498 3.25398 5.82143 3.44022 6.1007L3.69849 6.49432C4.02968 6.99816 4.36088 7.50181 4.69782 8.00181C4.76906 8.09219 4.80774 8.20398 4.80774 8.31905C4.80774 8.43412 4.76906 8.54591 4.69782 8.63629C4.3648 9.0958 4.14428 9.62693 4.05379 10.1871C4.04189 10.3103 3.98738 10.4257 3.89981 10.5133C3.81224 10.6008 3.69707 10.6551 3.57381 10.667C2.98247 10.7812 2.39099 10.9011 1.79966 11.0191L1.31967 11.1152C1.03169 11.1728 1.00096 11.2178 1 11.5163V14.4607C1 14.7717 1.04225 14.8224 1.34944 14.8858L2.22597 15.068C2.68483 15.164 3.14471 15.26 3.60357 15.356C3.7138 15.3698 3.81612 15.4201 3.89442 15.4989C3.97271 15.5777 4.02243 15.6806 4.03551 15.7909C4.1369 16.3596 4.36047 16.8995 4.69103 17.3733C4.76371 17.4638 4.80329 17.5764 4.80329 17.6924C4.80329 17.8085 4.76371 17.9211 4.69103 18.0115C4.37232 18.4751 4.06042 18.9434 3.74747 19.4117L3.41725 19.903C3.23582 20.1756 3.24158 20.2447 3.46717 20.4712L5.49373 22.4864C5.77116 22.7609 5.7999 22.7668 6.12628 22.5509L8.31784 21.0999L8.46947 21.2083C8.96457 21.5848 9.54209 21.8384 10.1543 21.9482C10.2833 21.9608 10.4041 22.017 10.4965 22.1078C10.5889 22.1986 10.6472 22.3184 10.662 22.4471C10.813 23.2065 10.9703 23.9645 11.1335 24.7207C11.1853 24.9626 11.2294 25 11.478 25C12.4956 25 13.5134 25 14.5316 25C14.761 25 14.8253 24.9712 14.881 24.7006L15.0193 24.0288C15.1326 23.4808 15.2448 22.9318 15.3514 22.3829C15.3648 22.2748 15.4147 22.1745 15.4927 22.0984C15.5707 22.0224 15.6721 21.9751 15.7805 21.9644C16.3556 21.8722 16.9013 21.6463 17.3733 21.3051C17.457 21.2361 17.5619 21.198 17.6704 21.1971C17.779 21.1962 17.8844 21.2328 17.9693 21.3004C18.4598 21.6334 18.9542 21.9616 19.4486 22.2899L19.9037 22.5921C20.1687 22.7687 20.2434 22.7601 20.4709 22.5317L22.5021 20.4904C22.746 20.2448 22.75 20.2082 22.5647 19.9251L22.2603 19.4635C21.9396 18.975 21.6201 18.4875 21.2956 18.0029C21.2272 17.9153 21.1899 17.8073 21.1899 17.6962C21.1899 17.5851 21.2272 17.4773 21.2956 17.3897C21.6402 16.9203 21.8679 16.3755 21.9598 15.8005C21.9719 15.6879 22.0219 15.5826 22.1016 15.5022C22.1813 15.4218 22.2861 15.3709 22.3985 15.3579C22.8699 15.2619 23.3411 15.1661 23.8115 15.0702L24.6611 14.8839ZM21.8696 14.9289C21.7903 14.9335 21.7151 14.9659 21.6572 15.0202C21.5993 15.0746 21.5625 15.1476 21.5529 15.2264C21.5126 15.4184 21.4751 15.6104 21.4376 15.8023C21.3417 16.2767 21.1452 16.7248 20.8616 17.117L20.7809 17.2332C20.4757 17.6689 20.4757 17.6689 20.8588 18.2332C21.1285 18.6295 21.3897 19.0307 21.646 19.4232L22.0885 20.0949L20.1139 22.1017L17.9357 20.6622C17.6554 20.476 17.6554 20.4788 17.4164 20.6544C16.7853 21.1272 16.0424 21.4289 15.2602 21.5298C15.0865 21.5519 14.9722 21.6179 14.9223 21.877C14.8503 22.2811 14.7697 22.6832 14.69 23.0862C14.6257 23.4077 14.5605 23.7302 14.4981 24.0537C14.4885 24.1789 14.43 24.2954 14.3354 24.3782C14.2408 24.4609 14.1175 24.5032 13.9921 24.496H13.9796C13.4584 24.4883 12.9372 24.4904 12.4082 24.4904H11.6154L11.1766 22.3599C11.1478 22.216 11.1199 22.0721 11.0892 21.9281C11.022 21.6133 10.9932 21.5863 10.6505 21.5134C10.2541 21.4425 9.8651 21.3359 9.48803 21.1947C9.21369 21.0706 8.95352 20.9171 8.71228 20.7369L8.57892 20.6411C8.50891 20.5798 8.4191 20.546 8.32604 20.546C8.23299 20.546 8.14317 20.5798 8.07316 20.6411C7.60662 20.9578 7.13519 21.2667 6.66673 21.5757L5.88137 22.094L3.86559 20.116L4.37135 19.3482C4.69582 18.8549 5.02047 18.3617 5.35358 17.8752C5.38275 17.8466 5.40573 17.8126 5.42155 17.7749C5.43737 17.7373 5.44569 17.6967 5.44569 17.6559C5.44569 17.615 5.43737 17.5747 5.42155 17.5371C5.40573 17.4994 5.38275 17.4652 5.35358 17.4366C4.84963 16.8049 4.53447 16.0439 4.44447 15.241C4.41952 15.0337 4.37725 14.9749 4.10558 14.9193L1.91192 14.4713C1.86488 14.4617 1.81604 14.4491 1.76708 14.4347L1.49826 14.3647V11.5873L4.10066 11.0585C4.39921 10.9961 4.4146 10.9625 4.44916 10.7187C4.54908 9.94303 4.85211 9.2075 5.32757 8.58638C5.39377 8.51416 5.42977 8.41934 5.42834 8.32139C5.42691 8.22344 5.38811 8.1297 5.31983 8.05944C5.004 7.59303 4.69601 7.12184 4.39362 6.65927L3.8827 5.87999L5.87575 3.88962L6.62361 4.37813C7.09015 4.68043 7.56335 4.98748 8.02605 5.30994C8.10518 5.38847 8.2122 5.43248 8.3237 5.43248C8.43519 5.43248 8.54199 5.38847 8.62111 5.30994C9.22668 4.83136 9.95435 4.53221 10.7215 4.44631C10.9384 4.4204 11.0317 4.3272 11.0759 4.09111C11.2093 3.38094 11.3639 2.67563 11.5146 1.9693L11.5366 1.87323C11.555 1.77893 11.6024 1.69291 11.6723 1.62699C11.7422 1.56106 11.8311 1.51872 11.9264 1.50585C12.5235 1.49818 13.1206 1.4981 13.7254 1.49906H14.3973L14.7929 3.4482C14.8409 3.68556 14.8871 3.92317 14.9319 4.16117C14.9684 4.35311 15.0548 4.40407 15.1805 4.4271C15.3063 4.45013 15.4513 4.47799 15.5867 4.50582L15.8525 4.56042C16.3906 4.68494 16.8948 4.92648 17.329 5.26777C17.6515 5.49521 17.6514 5.49329 17.9922 5.26777L20.1043 3.8772L22.0943 5.87132L21.9734 6.05571C21.8544 6.23614 21.7343 6.42131 21.6144 6.60749C21.3264 7.05854 21.0239 7.52594 20.6984 7.97603C20.6529 8.01933 20.6166 8.07129 20.5918 8.12903C20.567 8.18677 20.5543 8.24895 20.5543 8.31178C20.5543 8.37462 20.567 8.4368 20.5918 8.49454C20.6166 8.55228 20.6529 8.60447 20.6984 8.64777C21.1621 9.24561 21.4475 9.96218 21.522 10.715C21.5527 10.9511 21.5989 10.998 21.8475 11.0479L22.1201 11.1028C22.7662 11.2314 23.4132 11.3598 24.0611 11.4807C24.1244 11.4866 24.186 11.505 24.2421 11.5348C24.2981 11.5646 24.3478 11.6052 24.3881 11.6543C24.4283 11.7034 24.4584 11.7601 24.4767 11.8209C24.4949 11.8817 24.5009 11.9454 24.4942 12.0086C24.4846 12.6567 24.4846 13.3058 24.4942 13.9558C24.5003 14.0171 24.4941 14.0788 24.4762 14.1376C24.4583 14.1965 24.4289 14.2514 24.3897 14.2988C24.3505 14.3463 24.3023 14.3856 24.2479 14.4143C24.1935 14.4431 24.1341 14.4607 24.0728 14.4664C23.7433 14.5303 23.4142 14.5969 23.0859 14.666C22.6895 14.7658 22.2795 14.8502 21.8696 14.9289Z" stroke="white" stroke-width="0.5"/>
<path d="M13.0006 7.52985C12.282 7.5284 11.57 7.66842 10.9056 7.94198C10.2412 8.21555 9.6373 8.61732 9.12817 9.12426C8.61904 9.63119 8.21485 10.2334 7.93853 10.8965C7.66221 11.5596 7.51906 12.2707 7.51761 12.989C7.51616 13.7074 7.65621 14.419 7.92986 15.0832C8.2035 15.7474 8.60539 16.3511 9.11247 16.8601C9.61954 17.3691 10.2219 17.7734 10.8852 18.0497C11.5485 18.3259 12.2598 18.4688 12.9783 18.4702H12.9966C13.718 18.4716 14.4324 18.3298 15.0986 18.0532C15.7648 17.7766 16.3695 17.3708 16.8777 16.859C17.6397 16.0929 18.1577 15.1184 18.3664 14.0584C18.5751 12.9984 18.4652 11.9002 18.0505 10.9026C17.6358 9.90497 16.9348 9.05244 16.0361 8.45252C15.1374 7.85261 14.0812 7.53229 13.0006 7.53172V7.52985ZM16.491 16.5354C16.0367 16.9878 15.4976 17.3464 14.9046 17.5904C14.3116 17.8345 13.6763 17.9594 13.035 17.9578H12.9804C12.3205 17.9589 11.6671 17.8279 11.0586 17.5726C10.4502 17.3173 9.89898 16.9428 9.43753 16.4712C8.97609 15.9996 8.61355 15.4404 8.37164 14.8266C8.12972 14.2129 8.01313 13.5569 8.02876 12.8974C8.03929 12.2452 8.17959 11.6015 8.44148 11.004C8.70337 10.4066 9.08172 9.86717 9.55425 9.41737C10.5024 8.51862 11.7664 8.02925 13.0728 8.05515C14.3791 8.08105 15.6228 8.62021 16.5346 9.55584C17.4464 10.4915 17.9529 11.7484 17.9448 13.0546C17.9366 14.3609 17.4144 15.6112 16.491 16.5354Z" stroke="white" stroke-width="0.5"/>
</svg>
