<svg width="40" height="40" viewBox="0 0 40 40" fill="none" xmlns="http://www.w3.org/2000/svg">
<path d="M20 39.5C30.7696 39.5 39.5 30.7696 39.5 20C39.5 9.23045 30.7696 0.5 20 0.5C9.23045 0.5 0.5 9.23045 0.5 20C0.5 30.7696 9.23045 39.5 20 39.5Z" stroke="white"/>
<path d="M26.209 12.8724C27.4502 13.9921 28.2635 15.5088 28.5089 17.1623C28.5323 17.2665 28.515 17.3761 28.4608 17.4681C28.4065 17.5601 28.3194 17.6281 28.2169 17.658C26.8902 18.3331 25.5663 19.0142 24.2449 19.7019C24.0576 19.7987 23.8898 19.929 23.7492 20.0862C21.1051 23.0973 18.4671 26.1098 15.8355 29.1232C14.8461 30.2541 13.8524 31.3817 12.8673 32.5071C12.5374 32.8678 12.0843 33.0917 11.5973 33.1341C11.1103 33.1765 10.6252 33.0342 10.2379 32.736C9.85067 32.4377 9.58963 32.0053 9.5063 31.5237C9.42296 31.042 9.52364 30.5464 9.78817 30.1354C10.833 28.6137 11.8905 27.102 12.9426 25.5872C14.5342 23.2978 16.1264 21.0088 17.7195 18.7207C18.217 18.0063 18.7228 17.296 19.2116 16.5749C19.3374 16.3939 19.4308 16.1921 19.4872 15.9789C19.8324 14.5629 20.1584 13.1405 20.4924 11.7194C20.5912 11.299 20.6554 11.2478 21.0878 11.2241C22.9349 11.1596 24.7463 11.7426 26.209 12.8724ZM18.5934 18.7169C17.9806 19.595 17.392 20.434 16.808 21.2737C15.4613 23.2129 14.1161 25.1533 12.7717 27.0951C11.9925 28.2202 11.2107 29.3433 10.4365 30.4749C10.2788 30.6955 10.1977 30.9614 10.2051 31.2325C10.2124 31.5036 10.3081 31.7649 10.4775 31.9767C10.6357 32.178 10.8554 32.3221 11.1032 32.3864C11.3509 32.4508 11.6134 32.4321 11.8495 32.3333C12.1287 32.1935 12.3762 31.9984 12.5778 31.7601C15.4267 28.5282 18.2691 25.2912 21.1044 22.0485C21.3343 21.7852 21.5357 21.4968 21.7667 21.2013L18.5901 18.718L18.5934 18.7169ZM27.7636 17.0849C27.663 16.7523 27.5836 16.4363 27.4853 16.1284C27.083 14.8485 26.263 13.7406 25.157 12.9811C24.051 12.2217 22.7225 11.8544 21.3834 11.9387C21.3518 11.9342 21.3194 11.9369 21.2886 11.9457C21.2579 11.9546 21.2295 11.9696 21.205 11.9901C21.1805 12.0106 21.1608 12.036 21.1467 12.0647C21.1325 12.0934 21.1244 12.1247 21.1231 12.1567C20.7994 13.5452 20.4674 14.9327 20.1511 16.3231C20.145 16.3775 20.1517 16.4327 20.1701 16.4843C20.1885 16.5359 20.2183 16.5825 20.2575 16.6208C21.3131 17.4595 22.3755 18.2901 23.4449 19.1124C23.4862 19.1405 23.5338 19.1591 23.5833 19.1661C23.6328 19.1731 23.683 19.1684 23.7306 19.1529C25.0627 18.4753 26.391 17.7885 27.7572 17.0867L27.7636 17.0849ZM19.6978 17.1273C19.4636 17.461 19.2446 17.7738 19.0205 18.0912L22.3168 20.668C22.5813 20.367 22.833 20.0822 23.0949 19.7829L19.6978 17.1273Z" fill="white"/>
</svg>
