<svg width="20" height="17" viewBox="0 0 20 17" fill="none" xmlns="http://www.w3.org/2000/svg">
<path d="M10.0637 2.66987C10.3405 2.36612 10.5933 2.04009 10.8881 1.76469C11.5932 1.09537 12.4924 0.673941 13.4523 0.562849C14.3529 0.419579 15.2751 0.542764 16.1083 0.917598C16.9414 1.29243 17.65 1.90298 18.1491 2.67593C18.5016 3.18077 18.7522 3.75122 18.8865 4.3545C19.0208 4.95779 19.0361 5.58202 18.9315 6.19131C18.8111 7.03797 18.4703 7.83685 17.9442 8.50585C17.8106 8.67347 17.6678 8.83338 17.5165 8.98478C15.1089 11.4289 12.7002 13.8728 10.2906 16.3162C10.0487 16.5613 9.9588 16.5613 9.72196 16.3162C7.30499 13.8647 4.8877 11.4138 2.47006 8.96352C1.76754 8.27609 1.29063 7.38637 1.10401 6.41505C0.950139 5.68133 0.967193 4.92137 1.15384 4.1955C1.34049 3.46963 1.69158 2.79786 2.17925 2.23349C2.89537 1.35128 3.90506 0.764693 5.01826 0.584138C5.7986 0.435599 6.60305 0.484277 7.3604 0.725871C8.11774 0.967465 8.80462 1.3945 9.36022 1.96921C9.57607 2.18082 9.78493 2.39447 10.0637 2.66987ZM9.98478 15.8991C10.0387 15.8505 10.0637 15.8302 10.0847 15.8069C12.462 13.3972 14.8474 10.9936 17.2127 8.57067C17.7227 8.06898 18.0989 7.44449 18.3062 6.75556C18.5135 6.06662 18.545 5.33568 18.3979 4.63105C18.2262 3.62409 17.7001 2.71434 16.9169 2.07046C16.4751 1.68629 15.9604 1.39765 15.4045 1.22232C14.8486 1.04699 14.2632 0.988673 13.6842 1.0509C12.6236 1.14899 11.6353 1.63741 10.9061 2.42382C10.6876 2.65197 10.4671 2.87811 10.2446 3.10221C10.0677 3.2804 9.93481 3.27735 9.75594 3.09612C9.51411 2.8511 9.27628 2.60202 9.03345 2.35801C8.30784 1.6001 7.33509 1.1352 6.29636 1.04988C5.62396 0.979336 4.94466 1.07214 4.31471 1.32058C3.68476 1.56902 3.12228 1.96593 2.6739 2.47848C2.29042 2.89133 1.99179 3.37733 1.79536 3.90817C1.59893 4.43901 1.50863 5.00413 1.52971 5.57065C1.54047 6.1486 1.66437 6.71865 1.89423 7.24771C2.12409 7.77677 2.45535 8.25432 2.86877 8.65268C5.19647 11.0098 7.52216 13.3682 9.84587 15.728C9.88984 15.7776 9.9288 15.8333 9.98277 15.9031L9.98478 15.8991Z" fill="white" stroke="white" stroke-width="0.3"/>
</svg>
