<svg width="16" height="17" viewBox="0 0 16 17" fill="none" xmlns="http://www.w3.org/2000/svg">
<path d="M7.47021 9.8111C7.47021 9.3511 7.47021 8.89122 7.47021 8.43122C7.47191 8.34596 7.46424 8.26063 7.44727 8.17707C7.43923 8.13292 7.42134 8.09133 7.39502 8.055C7.3687 8.01866 7.33485 7.9885 7.29541 7.96711C7.25597 7.94571 7.21229 7.93347 7.16748 7.93122C7.12267 7.92896 7.07801 7.93684 7.03662 7.95417C6.97362 7.96917 6.91359 7.99813 6.85059 8.01813C6.82175 8.03166 6.78838 8.03348 6.7583 8.02301C6.72822 8.01255 6.70367 7.99073 6.68945 7.96222C6.67865 7.93852 6.67285 7.91259 6.67285 7.88654C6.67285 7.86049 6.67865 7.8348 6.68945 7.8111C6.90074 7.51282 7.18311 7.27223 7.51123 7.11115C7.6307 7.04728 7.76495 7.01547 7.90039 7.01862C8.03583 7.02177 8.1683 7.05985 8.28467 7.12921C8.34938 7.16932 8.40357 7.22417 8.44287 7.28937C8.48217 7.35457 8.50502 7.42827 8.51025 7.50421C8.51575 7.56305 8.51841 7.62213 8.51758 7.68122C8.51758 8.57522 8.51758 9.4691 8.51758 10.3631C8.5159 10.4583 8.52545 10.5532 8.54639 10.6461C8.5525 10.6828 8.56641 10.7179 8.58691 10.7491C8.60742 10.7802 8.63416 10.8068 8.66553 10.827C8.6969 10.8471 8.73219 10.8606 8.76904 10.8663C8.80589 10.872 8.84339 10.8699 8.87939 10.8602C8.96294 10.8435 9.04525 10.8207 9.12549 10.7921C9.15531 10.7781 9.18898 10.7754 9.2207 10.7842C9.25243 10.793 9.27997 10.8128 9.29834 10.8402C9.31895 10.8661 9.32926 10.8989 9.32666 10.9319C9.32406 10.965 9.30908 10.9957 9.28467 11.0181C9.09981 11.2529 8.87729 11.4558 8.62646 11.6182C8.51868 11.6913 8.39665 11.7411 8.26855 11.7645C8.14046 11.7879 8.00898 11.7844 7.88232 11.7542C7.77021 11.7329 7.66916 11.673 7.59619 11.5853C7.52322 11.4975 7.48296 11.3871 7.48242 11.273C7.47442 10.787 7.48242 10.3 7.48242 9.81403L7.47021 9.8111Z" fill="white"/>
<path d="M7.31445 5.83029C7.31347 5.71085 7.34812 5.59378 7.41357 5.49386C7.47901 5.39394 7.57225 5.3156 7.68212 5.26876C7.792 5.22193 7.91335 5.2087 8.03075 5.23068C8.14816 5.25265 8.2563 5.30889 8.34179 5.3923C8.42728 5.4757 8.48635 5.5826 8.51122 5.69943C8.53609 5.81625 8.52555 5.93779 8.48144 6.04879C8.43733 6.15979 8.36145 6.25532 8.26318 6.32321C8.16491 6.39109 8.0491 6.42816 7.92968 6.43014C7.84985 6.43133 7.77046 6.41672 7.69628 6.38717C7.62211 6.35762 7.55421 6.31377 7.49706 6.25802C7.43991 6.20226 7.39464 6.13588 7.36327 6.06246C7.33191 5.98904 7.31523 5.91012 7.31445 5.83029Z" fill="white"/>
<path d="M8 15.5C4.13401 15.5 1 12.366 1 8.5H-1C-1 13.4706 3.02944 17.5 8 17.5V15.5ZM15 8.5C15 12.366 11.866 15.5 8 15.5V17.5C12.9706 17.5 17 13.4706 17 8.5H15ZM8 1.5C11.866 1.5 15 4.63401 15 8.5H17C17 3.52944 12.9706 -0.5 8 -0.5V1.5ZM8 -0.5C3.02944 -0.5 -1 3.52944 -1 8.5H1C1 4.63401 4.13401 1.5 8 1.5V-0.5Z" fill="white"/>
</svg>
