<svg width="20" height="19" viewBox="0 0 20 19" fill="none" xmlns="http://www.w3.org/2000/svg">
<path d="M18.9536 8.39135C18.5174 6.19135 16.3063 6.26735 14.5305 6.32835C14.2634 6.33735 14.0092 6.34635 13.7701 6.34735C13.7421 5.73835 13.6411 3.56535 13.604 3.25435C13.485 2.27535 13.1848 0.930348 11.9603 0.554348C11.7934 0.499996 11.6162 0.485074 11.4426 0.510754C11.269 0.536435 11.1037 0.602019 10.9598 0.702348C10.7857 0.83104 10.6418 0.996133 10.5381 1.18611C10.4345 1.3761 10.3735 1.5864 10.3595 1.80235C10.3441 2.96747 9.99704 4.10412 9.35901 5.07935C8.70867 5.9108 7.86052 6.56637 6.89183 6.98635C6.77977 7.03735 5.62522 7.39535 5.15499 7.53535V6.77735H1V18.1623H5.15499V17.0623C5.56382 17.5947 6.1348 17.9798 6.78177 18.1593C8.03302 18.4083 9.3083 18.516 10.5836 18.4803C11.492 18.4723 12.2454 18.4753 12.9537 18.4913C13.1538 18.4913 13.3489 18.4993 13.54 18.4993C14.1749 18.5164 14.8092 18.4461 15.4249 18.2903C15.8462 18.1275 16.2183 17.8586 16.505 17.5098C16.7918 17.161 16.9835 16.744 17.0617 16.2993L17.9982 11.0993C18.3784 10.769 18.6664 10.3458 18.834 9.87099C19.0016 9.39617 19.0432 8.88601 18.9546 8.39035L18.9536 8.39135ZM4.83784 17.8373H1.31615V7.09935H4.83784V17.8373ZM17.755 10.8843L17.707 10.9223L16.7496 16.2423C16.6779 16.6262 16.5113 16.9861 16.2649 17.2891C16.0185 17.5922 15.7002 17.8288 15.3389 17.9773C14.5589 18.1575 13.7565 18.2216 12.9577 18.1673C12.4985 18.1573 12.0213 18.1523 11.495 18.1523C11.2059 18.1523 10.9018 18.1523 10.5786 18.1523C9.32647 18.1888 8.07423 18.0834 6.8458 17.8383C6.48373 17.7346 6.14678 17.5576 5.8558 17.3186C5.56481 17.0795 5.32596 16.7833 5.15399 16.4483V7.87135C5.29706 7.83235 5.53818 7.75835 5.96238 7.62635C6.38658 7.49435 6.92184 7.32635 7.01989 7.28235C8.03544 6.83904 8.92385 6.14873 9.60413 5.27435C10.2832 4.25053 10.6544 3.05357 10.6736 1.82535C10.6852 1.65813 10.7324 1.49531 10.8122 1.34785C10.8919 1.20038 11.0023 1.07166 11.1359 0.970348C11.2412 0.89634 11.3625 0.848175 11.4899 0.829759C11.6173 0.811342 11.7472 0.823192 11.8692 0.864348C12.6696 1.10935 13.1188 1.88135 13.2899 3.29335C13.3309 3.63435 13.46 6.48635 13.461 6.51535L13.468 6.66835H13.6171C13.9042 6.66835 14.2173 6.66135 14.5405 6.65035C16.2843 6.59035 18.2603 6.52235 18.6425 8.45035C18.7193 8.89751 18.6777 9.35697 18.5218 9.78309C18.366 10.2092 18.1013 10.5871 17.754 10.8793" fill="white"/>
<path d="M17.755 10.8843L17.707 10.9223L16.7496 16.2423C16.6779 16.6262 16.5113 16.9861 16.2649 17.2891C16.0185 17.5922 15.7002 17.8288 15.3389 17.9773C14.5589 18.1575 13.7565 18.2216 12.9577 18.1673C12.4985 18.1573 12.0213 18.1523 11.495 18.1523C11.2059 18.1523 10.9018 18.1523 10.5786 18.1523C9.32647 18.1888 8.07423 18.0834 6.8458 17.8383C6.48373 17.7346 6.14678 17.5576 5.8558 17.3186C5.56481 17.0795 5.32596 16.7833 5.15399 16.4483V7.87135C5.29706 7.83235 5.53818 7.75835 5.96238 7.62635C6.38658 7.49435 6.92184 7.32635 7.01989 7.28235C8.03544 6.83904 8.92385 6.14873 9.60413 5.27435C10.2832 4.25053 10.6544 3.05357 10.6736 1.82535C10.6852 1.65813 10.7324 1.49531 10.8122 1.34785C10.8919 1.20038 11.0023 1.07166 11.1359 0.970348C11.2412 0.89634 11.3625 0.848175 11.4899 0.829759C11.6173 0.811342 11.7472 0.823192 11.8692 0.864348C12.6696 1.10935 13.1188 1.88135 13.2899 3.29335C13.3309 3.63435 13.46 6.48635 13.461 6.51535L13.468 6.66835H13.6171C13.9042 6.66835 14.2173 6.66135 14.5405 6.65035C16.2843 6.59035 18.2603 6.52235 18.6425 8.45035C18.7193 8.89751 18.6777 9.35697 18.5218 9.78309C18.366 10.2092 18.1013 10.5871 17.754 10.8793M18.9536 8.39135C18.5174 6.19135 16.3063 6.26735 14.5305 6.32835C14.2634 6.33735 14.0092 6.34635 13.7701 6.34735C13.7421 5.73835 13.6411 3.56535 13.604 3.25435C13.485 2.27535 13.1848 0.930348 11.9603 0.554348C11.7934 0.499996 11.6162 0.485074 11.4426 0.510754C11.269 0.536435 11.1037 0.602019 10.9598 0.702348C10.7857 0.83104 10.6418 0.996133 10.5381 1.18611C10.4345 1.3761 10.3735 1.5864 10.3595 1.80235C10.3441 2.96747 9.99704 4.10412 9.35901 5.07935C8.70867 5.9108 7.86052 6.56637 6.89183 6.98635C6.77977 7.03735 5.62522 7.39535 5.15499 7.53535V6.77735H1V18.1623H5.15499V17.0623C5.56382 17.5947 6.1348 17.9798 6.78177 18.1593C8.03302 18.4083 9.3083 18.516 10.5836 18.4803C11.492 18.4723 12.2454 18.4753 12.9537 18.4913C13.1538 18.4913 13.3489 18.4993 13.54 18.4993C14.1749 18.5164 14.8092 18.4461 15.4249 18.2903C15.8462 18.1275 16.2183 17.8586 16.505 17.5098C16.7918 17.161 16.9835 16.744 17.0617 16.2993L17.9982 11.0993C18.3784 10.769 18.6664 10.3458 18.834 9.87099C19.0016 9.39617 19.0432 8.88602 18.9546 8.39035L18.9536 8.39135ZM4.83784 17.8373H1.31615V7.09935H4.83784V17.8373Z" stroke="white" stroke-width="0.5"/>
</svg>
