<svg width="85" height="36" viewBox="0 0 85 36" fill="none" xmlns="http://www.w3.org/2000/svg">
<path d="M71.8028 35.9987C70.8989 35.8963 69.9877 35.8642 69.0912 35.6882C66.5327 35.1857 64.1838 34.2744 62.3324 32.3468C60.7403 30.6895 59.9184 28.6835 59.5853 26.4495C59.4711 25.686 59.4221 24.9186 59.406 24.1458C59.3966 23.7009 59.6706 23.7075 59.966 23.6821C60.2642 23.656 60.4576 23.7022 60.4804 24.0816C60.5502 25.2498 60.659 26.414 60.9511 27.5548C61.7328 30.6125 63.6432 32.674 66.5314 33.8857C66.8067 34.0014 66.9169 33.9479 66.8692 33.6334C66.526 31.38 66.5079 29.1071 66.4743 26.8355C66.4555 25.5482 66.3205 24.2769 65.8686 23.0605C65.1508 21.1322 63.6708 20.0864 61.7455 19.5713C60.604 19.2655 59.4375 19.1404 58.259 19.1397C53.8613 19.1363 49.4636 19.143 45.0652 19.1303C44.6515 19.129 44.5045 19.238 44.5246 19.6649C44.5763 20.779 44.4783 21.8957 44.5797 23.0104C44.6462 23.743 44.9974 24.3773 45.2566 25.0397C46.5056 28.2359 47.7781 31.4228 49.0419 34.613C49.0875 34.7281 49.1339 34.8438 49.1708 34.9616C49.1963 35.0439 49.1909 35.1181 49.0969 35.1703C48.739 35.3691 48.042 35.1329 47.8896 34.7528C46.9474 32.3983 46.0066 30.0438 45.0652 27.6893C44.9349 27.3641 44.8053 27.0389 44.675 26.7137C44.6502 26.7204 44.6253 26.7265 44.6005 26.7332C44.5777 27.2102 44.5374 27.6866 44.536 28.1637C44.5293 30.3268 44.5347 32.4906 44.5307 34.6538C44.53 34.8237 44.6106 35.0593 44.4125 35.1416C44.1573 35.2473 43.8659 35.2312 43.5999 35.1456C43.4596 35.1001 43.4858 34.9395 43.4844 34.8184C43.4804 34.4189 43.4818 34.0195 43.4818 33.6194C43.4824 30.5744 43.4831 27.5287 43.4831 24.4837C43.4831 23.9404 43.4817 23.9384 42.9284 23.9384C37.5073 23.9377 32.0862 23.9377 26.6644 23.9384C26.1057 23.9384 26.1044 23.9404 26.1044 24.5212C26.1044 27.8699 26.1057 31.218 26.1057 34.5668C26.1057 35.1931 26.0997 35.1449 25.502 35.2071C24.811 35.2794 24.3685 35.0425 24.0213 34.4464C23.6755 33.8529 23.2383 33.3123 22.8381 32.7502C22.7837 32.674 22.7515 32.5468 22.6454 32.5515C22.5077 32.5575 22.5104 32.7101 22.4715 32.8031C22.1868 33.4909 21.9148 34.1834 21.6294 34.8706C21.5139 35.1489 20.6006 35.3523 20.3938 35.1483C20.2642 35.0198 20.3824 34.8873 20.4308 34.7696C20.8142 33.8248 21.1795 32.8714 21.6025 31.9433C21.7986 31.5131 21.7496 31.2073 21.477 30.826C18.2034 26.2474 14.9499 21.6555 11.687 17.0695C8.22401 12.2026 4.75699 7.33901 1.29132 2.47408C1.23625 2.39647 1.17783 2.32086 1.0442 2.14088C1.0442 2.40516 1.0442 2.55972 1.0442 2.71428C1.04353 13.2283 1.04286 23.7423 1.04219 34.2564C1.04219 34.3942 1.04286 34.532 1.04152 34.6699C1.03682 35.1355 0.545939 35.3958 0.126244 35.159C0.0255173 35.1021 0.00940078 35.0124 0.00537171 34.9154C-3.89621e-07 34.7776 0 34.6397 0 34.5019C0 23.4921 0 12.4816 0 1.47179C0 0.769917 0.00335692 0.810063 0.698372 0.756536C1.28057 0.711708 1.61902 0.926484 1.95209 1.39685C7.64516 9.43459 13.3564 17.4589 19.0649 25.4853C20.0722 26.9018 21.0815 28.3169 22.0934 29.73C22.1606 29.8237 22.1955 29.9916 22.3499 29.9581C22.4634 29.9334 22.4755 29.7882 22.5158 29.6885C23.3015 27.7615 24.0871 25.8346 24.8688 23.9056C25.032 23.5035 25.0642 23.0799 25.0642 22.6484C25.0595 15.552 25.0588 8.45505 25.0568 1.35871C25.0568 0.798019 25.081 0.771925 25.5833 0.771925C26.0755 0.771925 26.1064 0.801365 26.1064 1.32125C26.1077 6.91615 26.1084 12.5104 26.1091 18.1053C26.1091 18.9162 26.1091 19.7278 26.1091 20.5863C26.3421 20.5019 26.338 20.3588 26.3783 20.2591C28.9375 13.965 31.4912 7.6682 34.051 1.37477C34.1356 1.16669 34.1457 0.862251 34.4076 0.80471C34.7702 0.725088 35.1543 0.72375 35.5183 0.809393C35.7285 0.858906 35.7479 1.10245 35.8178 1.27709C37.4757 5.45285 39.1344 9.62795 40.787 13.8064C41.6129 15.8953 42.4261 17.9895 43.2454 20.0811C43.2743 20.1554 43.3065 20.2283 43.3374 20.3026C43.3844 20.3006 43.4314 20.2992 43.4784 20.2972C43.4784 19.4682 43.4784 18.6399 43.4784 17.8109C43.4797 12.3404 43.4811 6.86998 43.4831 1.39886C43.4831 0.769917 43.4844 0.76858 44.1318 0.76858C48.4328 0.767911 52.7338 0.761219 57.0349 0.771925C58.7647 0.775939 60.4878 0.870949 62.1719 1.32325C62.681 1.45975 63.1745 1.63839 63.654 1.85183C63.8762 1.95086 64.0582 1.9542 64.2751 1.83109C66.5173 0.558486 68.9569 0.0600163 71.5113 0.0078276C73.538 -0.0329867 75.5464 0.0707221 77.4985 0.680929C81.4799 1.92543 83.6603 4.67738 84.2781 8.73205C84.3506 9.20777 84.3795 9.68951 84.4259 10.1686C84.4547 10.4636 84.2909 10.5694 84.0236 10.5459C83.7752 10.5239 83.4428 10.6777 83.3958 10.2268C83.2923 9.24055 83.1527 8.259 82.8706 7.30355C82.0655 4.58304 80.2504 2.83204 77.612 1.87792C76.2354 1.38012 74.8044 1.18944 73.3473 1.10312C71.142 0.971982 68.9885 1.19077 66.8873 1.88127C66.3615 2.05389 65.8512 2.26399 65.3556 2.51155C65.1535 2.61258 65.1541 2.68551 65.324 2.82669C67.0995 4.30336 67.8697 6.26513 68.1027 8.49987C68.3008 10.4048 68.1034 12.2394 67.2385 13.971C67.0726 14.3029 66.888 14.6321 66.665 14.9271C66.4374 15.2282 66.4898 15.3453 66.8403 15.4617C68.4956 16.011 70.1925 16.3978 71.8887 16.7912C74.2444 17.3378 76.6027 17.8738 78.9054 18.6218C79.9737 18.9691 81.0052 19.4087 81.944 20.0276C83.5717 21.1001 84.5568 22.6089 84.9248 24.5185C84.9456 24.6255 84.9745 24.7312 85 24.8376C85 26.0226 85 27.2075 85 28.3932C84.9624 28.525 84.9194 28.6554 84.8885 28.7893C84.5346 30.3362 83.7718 31.6489 82.6108 32.7322C80.8373 34.3868 78.677 35.2265 76.3382 35.6956C75.4712 35.8695 74.5895 35.9003 73.7146 36C73.0746 35.9987 72.4387 35.9987 71.8028 35.9987ZM44.5286 9.92837C44.5286 12.4769 44.5307 15.0248 44.5253 17.5734C44.5246 17.8537 44.5441 18.0431 44.9141 18.039C49.5435 17.9822 54.1763 18.1662 58.803 17.9393C60.7893 17.8417 62.6031 17.1425 64.2174 15.9622C64.4739 15.7749 64.4699 15.6698 64.1878 15.5052C63.3102 14.9947 62.5191 14.3731 61.8825 13.5756C60.982 12.4475 60.5879 11.1347 60.469 9.71694C60.2555 7.17441 60.8786 4.9129 62.6776 3.03344C62.9932 2.70358 62.9939 2.69354 62.5547 2.55437C61.0546 2.07798 59.5114 1.87257 57.9421 1.8699C53.6424 1.86321 49.3434 1.87324 45.0437 1.85785C44.6059 1.85651 44.5179 2.00639 44.5206 2.40717C44.5367 4.91491 44.5286 7.42197 44.5286 9.92837ZM60.9713 18.4753C61.6549 18.6499 62.2317 18.7817 62.7985 18.9463C64.6189 19.4742 66.0083 20.5133 66.7644 22.2978C67.117 23.1301 67.3184 23.9999 67.4218 24.8918C67.632 26.7137 67.5769 28.5491 67.6663 30.377C67.7247 31.574 67.82 32.7656 68.006 33.9499C68.0537 34.2523 68.1941 34.4076 68.4949 34.4685C69.3618 34.6438 70.2321 34.7856 71.1165 34.8472C73.679 35.0245 76.1965 34.8599 78.622 33.9265C80.2423 33.3029 81.6646 32.3889 82.6873 30.9738C84.1264 28.9826 84.356 26.7579 83.7443 24.4335C83.1762 22.275 81.6471 20.9663 79.6904 20.0731C78.0075 19.305 76.2106 18.9122 74.421 18.4907C71.5322 17.8095 68.5963 17.3084 65.8082 16.2452C65.6638 16.1904 65.5497 16.1924 65.4281 16.2974C64.1717 17.3927 62.6924 18.0431 60.9713 18.4753ZM34.9817 2.03449C34.8313 2.12816 34.8172 2.29142 34.7628 2.42524C32.0701 9.07796 29.3807 15.7314 26.6919 22.3854C26.514 22.8257 26.52 22.8344 27.0035 22.8344C32.1876 22.8351 37.371 22.8351 42.5551 22.8344C43.1003 22.8344 43.0997 22.8324 42.8962 22.3078C40.3431 15.7187 37.7907 9.12948 35.2336 2.54233C35.1671 2.37037 35.1463 2.16831 34.9817 2.03449ZM67.0525 9.62193C67.0525 9.3195 67.072 9.01507 67.0491 8.71398C66.8981 6.66323 66.158 4.9022 64.5162 3.57272C64.2033 3.31981 64.0099 3.33921 63.7131 3.59681C60.8867 6.04968 60.2239 12.2013 64.8963 14.624C65.2878 14.8268 65.4617 14.7619 65.6887 14.4233C66.6657 12.9667 67.0955 11.3609 67.0525 9.62193ZM25.034 26.6569C24.9191 26.6997 24.9232 26.8121 24.8896 26.8924C24.4054 28.0606 23.9629 29.2476 23.4317 30.3944C23.1598 30.9819 23.1772 31.4275 23.6164 31.9072C23.9206 32.2397 24.1456 32.6439 24.4121 33.0112C24.5935 33.2614 24.7848 33.5043 25.0346 33.8328C25.034 31.3679 25.034 29.0147 25.034 26.6569Z" fill="white"/>
</svg>
