<svg width="335" height="88" viewBox="0 0 335 88" fill="none" xmlns="http://www.w3.org/2000/svg">
<path d="M53.14 35H54.46V15.2H54.52L68.14 35H69.7V13.58H68.38V33.23H68.32L54.79 13.58H53.14V35ZM79.832 13.58L71.222 35H72.632L75.362 28.13H85.622L88.322 35H89.732L81.272 13.58H79.832ZM75.782 26.99L80.552 14.87H80.612L85.202 26.99H75.782ZM92.5752 24.11V14.72H100.195C103.075 14.72 105.655 15.95 105.655 19.19C105.655 22.64 103.315 24.11 100.195 24.11H92.5752ZM91.2552 35H92.5752V25.25H100.195C103.945 25.25 104.965 26.93 105.235 29C105.475 31.07 104.995 33.53 105.805 35H107.275C106.405 33.86 106.765 31.46 106.555 29.24C106.345 27.02 105.565 25.01 102.385 24.65V24.59C105.235 24.11 106.975 21.98 106.975 19.1C106.975 14.96 103.945 13.58 100.195 13.58H91.2552V35ZM125.452 19.7C125.242 14.99 121.732 13.07 117.262 13.07C113.872 13.07 110.062 14.66 110.062 18.77C110.062 22.85 113.722 23.72 117.352 24.47C121.012 25.22 124.672 25.85 124.672 29.48C124.672 33.2 121.042 34.37 118.462 34.37C114.232 34.37 110.482 32.6 110.752 27.92H109.432C109.372 33.44 113.452 35.51 118.462 35.51C121.732 35.51 125.992 33.92 125.992 29.48C125.992 25.22 122.332 24.29 118.672 23.54C115.042 22.79 111.382 22.22 111.382 18.77C111.382 15.23 114.832 14.21 117.262 14.21C121.222 14.21 123.982 16.04 124.132 19.7H125.452ZM139.21 27.53H146.26V31.16C143.77 31.52 141.37 31.91 139.21 32.24V27.53ZM146.26 17.81V21.74H139.21V17.81H146.26ZM139.21 22.61H146.26V26.66H139.21V22.61ZM149.74 31.37L149.68 30.59L147.13 31.01V17.81H150.1V16.94H145.81C146.2 15.41 146.62 13.61 146.86 12.05L146.26 11.9L146.08 11.99H137.26V12.86H145.84C145.6 14.03 145.27 15.68 144.91 16.94H135.67V17.81H138.34V32.36C137.17 32.54 136.09 32.69 135.13 32.81L135.34 33.74C138.28 33.26 142.21 32.63 146.26 31.97V37.16H147.13V31.82L149.74 31.37ZM158.5 17.51C157.93 22.28 156.91 26.18 155.23 29.39C153.46 25.97 152.65 22.01 152.23 18.2C152.26 17.96 152.35 17.75 152.41 17.51H158.5ZM162.37 17.51V16.64H152.71C153.37 14.42 153.88 12.23 154.27 10.28L153.34 10.1C152.56 14.57 151.03 20.36 148.48 24.23C148.72 24.32 149.08 24.53 149.26 24.65C150.19 23.21 150.97 21.53 151.66 19.73C152.14 23.33 152.98 27.05 154.78 30.23C153.25 32.84 151.18 34.88 148.42 36.5C148.66 36.65 149.02 36.98 149.17 37.16C151.75 35.51 153.73 33.5 155.23 31.07C156.76 33.53 158.89 35.69 161.89 37.19C162.04 36.98 162.31 36.65 162.52 36.47C159.43 35 157.24 32.84 155.71 30.26C157.63 26.93 158.71 22.73 159.43 17.51H162.37ZM184.48 20.42L190.24 17.57V20.66H191.11V11.21H184.63V12.08H190.24V16.67C187.96 17.81 185.77 18.86 184.18 19.58L184.48 20.42ZM188.83 15.95C188.14 15.26 186.79 14.15 185.74 13.31L185.17 13.85C186.25 14.69 187.57 15.86 188.26 16.61L188.83 15.95ZM176.71 20.54L182.35 17.75V20.66H183.22V11.21H176.95V12.08H182.35V16.85C180.1 17.96 177.97 19.01 176.41 19.7L176.71 20.54ZM181.12 16.01C180.43 15.32 179.08 14.21 178.03 13.37L177.46 13.91C178.54 14.75 179.86 15.92 180.55 16.67L181.12 16.01ZM174.82 12.53C174.28 14.54 173.26 17.66 172.48 19.46L173.23 19.73C174.04 17.93 175.03 15.02 175.75 12.83L174.82 12.53ZM168.4 19.43C168.07 17.6 167.29 14.81 166.54 12.65L165.7 12.83C166.42 14.96 167.2 17.81 167.53 19.64L168.4 19.43ZM173.05 32.45V21.86H176.5V20.99H171.1V10.73H170.23V20.99H165.22V21.86H168.49C168.34 28.37 167.77 33.41 164.86 36.14C165.1 36.26 165.43 36.5 165.58 36.65C168.61 33.77 169.18 28.67 169.36 21.86H172.18V31.94C172.18 33.02 171.76 33.29 171.46 33.41C171.64 33.65 171.85 34.07 171.94 34.34C172.33 33.92 172.93 33.56 177.25 31.31C177.16 31.13 177.04 30.74 177.01 30.5L173.05 32.45ZM179.08 31.88H184.69V34.91H179.08V31.88ZM184.69 27.2H179.08V24.32H184.69V27.2ZM184.69 31.01H179.08V28.07H184.69V31.01ZM192.31 34.91H185.56V31.88H190.99V31.01H185.56V28.07H190.99V27.2H185.56V24.32H191.53V23.45H185.47C185.14 22.64 184.63 21.59 184.21 20.84L183.46 21.05C183.85 21.77 184.27 22.67 184.6 23.45H179.35C179.83 22.58 180.28 21.65 180.67 20.72L179.8 20.51C178.75 23.18 177.04 25.76 175.12 27.59C175.36 27.68 175.72 27.98 175.87 28.1C176.68 27.32 177.46 26.36 178.21 25.28V37.07H179.08V35.78H192.31V34.91ZM212.38 35.6C210.58 35.6 210.19 35.33 210.19 34.31V22.31H222.01V21.44H208.06C208.54 18.59 208.66 15.68 208.75 13.13H220.24V12.26H197.44V13.13H207.91C207.85 15.65 207.73 18.56 207.19 21.44H195.52V22.31H207.04C205.78 28.04 202.81 33.65 195.28 36.5C195.43 36.65 195.73 36.98 195.88 37.19C203.68 34.16 206.68 28.31 207.88 22.31H209.32V34.28C209.32 36.08 210.01 36.47 212.44 36.47H219.19C221.68 36.47 222.04 35.33 222.22 30.86C221.95 30.8 221.62 30.65 221.35 30.44C221.2 34.82 220.93 35.6 219.19 35.6H212.38ZM240.25 34.79V21.68H250.9V20.81H240.25V10.25H239.38V34.79H230.83V17.15H229.96V34.79H225.46V35.66H251.95V34.79H240.25ZM280.42 12.71H273.7C273.46 11.96 272.92 10.82 272.44 9.98L271.66 10.16C272.08 10.94 272.5 11.93 272.77 12.71H265.72V13.58H280.42V12.71ZM270.4 17.48C270.19 16.61 269.62 15.23 269.17 14.15L268.33 14.36C268.81 15.47 269.32 16.88 269.53 17.78L270.4 17.48ZM281.23 18.17H275.77C276.28 17.15 276.88 15.8 277.39 14.63L276.46 14.27C276.1 15.38 275.41 17.06 274.84 18.17H264.79V19.04H281.23V18.17ZM263.68 28.58L260.11 29.93V18.44H263.38V17.57H260.11V10.37H259.24V17.57H255.55V18.44H259.24V30.26C257.68 30.86 256.27 31.4 255.13 31.76L255.46 32.69C257.8 31.76 260.86 30.56 263.86 29.39L263.68 28.58ZM267.34 25.61H278.59V28.37H267.34V25.61ZM267.34 22.07H278.59V24.74H267.34V22.07ZM276.79 35.96C276.25 35.96 275.92 35.93 275.65 35.84C275.32 35.72 275.26 35.39 275.26 34.79V29.24H279.46V21.2H266.47V29.24H270.22C269.83 33.53 268.27 35.45 263.14 36.47C263.35 36.65 263.62 37.01 263.71 37.25C268.99 36.08 270.67 33.98 271.12 29.24H274.39V34.49C274.39 35.87 274.54 36.2 274.99 36.41C275.44 36.65 276.19 36.71 276.79 36.71H278.95C279.52 36.71 280.36 36.65 280.78 36.53C281.23 36.41 281.59 36.17 281.74 35.72C281.89 35.27 281.98 33.95 282.01 32.69C281.71 32.63 281.41 32.48 281.17 32.27C281.14 33.62 281.11 34.64 281.02 35.12C280.9 35.48 280.63 35.75 280.33 35.84C280.06 35.93 279.4 35.96 278.86 35.96H276.79Z" fill="white"/>
<path d="M70.3587 60.876H65.4507V57.48H69.5187V56.916H60.5907V57.48H64.8627V60.876H59.7627V61.44H64.8627V65.892C64.8627 66.144 64.7547 66.216 64.5027 66.228C64.2507 66.24 63.3507 66.24 62.3067 66.216C62.4027 66.396 62.5107 66.648 62.5587 66.816C63.8067 66.828 64.5387 66.816 64.9107 66.708C65.2827 66.6 65.4507 66.408 65.4507 65.88V61.44H70.3587V60.876ZM78.3627 56.964H77.8947V59.22H76.8387V56.004H76.3587V59.22H75.1947V56.964H74.7267V59.724H78.3627V56.964ZM78.4107 60.768H74.4267V61.284H78.4107V60.768ZM73.5387 56.004C73.0947 56.832 72.2427 57.804 71.4747 58.44C71.5707 58.548 71.7507 58.764 71.8227 58.884C72.6387 58.176 73.5267 57.132 74.0787 56.208L73.5387 56.004ZM73.8267 58.332C73.2027 59.628 72.2427 60.96 71.3067 61.836C71.4267 61.956 71.6187 62.208 71.6907 62.316C72.0987 61.896 72.5427 61.392 72.9387 60.84V66.852H73.4787V60.048C73.7907 59.544 74.1027 59.028 74.3547 58.512L73.8267 58.332ZM77.9667 64.524V62.232H75.0147V63.636C75.0147 64.5 74.8707 65.616 74.0667 66.48C74.1747 66.552 74.3787 66.756 74.4507 66.876C75.3507 65.928 75.5427 64.62 75.5427 63.648V62.736H77.4747V64.416C77.4747 64.884 77.2827 65.052 77.1507 65.124C77.2347 65.256 77.3667 65.508 77.4027 65.652C77.5707 65.436 77.7987 65.256 79.1427 64.284C79.0947 64.2 78.9987 63.996 78.9507 63.852L77.9667 64.524ZM81.5427 59.064C81.3387 60.756 81.0267 62.208 80.4867 63.42C80.0787 62.292 79.8027 60.984 79.6227 59.628C79.6707 59.436 79.7187 59.256 79.7547 59.064H81.5427ZM82.4907 59.064V58.536H79.8627C80.0187 57.756 80.1267 56.94 80.2227 56.088L79.6707 56.016C79.4547 58.068 79.1187 60.048 78.4107 61.356C78.5547 61.452 78.7707 61.644 78.8547 61.752C79.0347 61.416 79.1907 61.044 79.3347 60.648C79.5267 61.884 79.8027 63.036 80.1867 64.02C79.6347 65.028 78.8907 65.844 77.9067 66.468C78.0267 66.564 78.2187 66.792 78.2667 66.9C79.1907 66.276 79.8867 65.52 80.4387 64.632C80.8707 65.58 81.4347 66.348 82.1427 66.84C82.2387 66.696 82.4067 66.504 82.5387 66.396C81.7827 65.928 81.1947 65.112 80.7387 64.068C81.4227 62.724 81.8187 61.08 82.0707 59.064H82.4907ZM90.9627 57.564C90.7827 57.156 90.4227 56.52 90.0747 56.016L89.5587 56.232C89.8947 56.724 90.2547 57.384 90.4107 57.804L90.9627 57.564ZM86.2827 56.052C85.6587 57.924 84.6387 59.784 83.5227 60.996C83.6427 61.104 83.8227 61.38 83.8827 61.5C84.3267 60.984 84.7707 60.372 85.1787 59.7V66.912H85.7187V58.74C86.1387 57.936 86.5107 57.072 86.8107 56.196L86.2827 56.052ZM92.8947 63.624V65.856H88.0227V63.624H92.8947ZM87.4947 66.9H88.0227V66.36H92.8947V66.864H93.4347V63.12H87.4947V66.9ZM87.6507 61.896H93.3267V61.392H87.6507V61.896ZM93.3267 59.724H87.6507V60.228H93.3267V59.724ZM86.7627 58.056V58.572H94.3107V58.056H86.7627ZM99.2067 61.644L99.0987 61.116C98.6547 61.308 98.1987 61.488 97.7667 61.656V59.052H99.0867V58.512H97.7667V56.016H97.2147V58.512H95.7027V59.052H97.2147V61.884C96.6147 62.124 96.0747 62.316 95.6307 62.484L95.8227 63.036L97.2147 62.472V66.048C97.2147 66.204 97.1547 66.24 97.0107 66.24C96.8907 66.252 96.4587 66.252 95.9427 66.24C96.0267 66.408 96.1107 66.648 96.1347 66.804C96.8187 66.804 97.2027 66.78 97.4427 66.684C97.6707 66.576 97.7667 66.42 97.7667 66.048V62.244L99.2067 61.644ZM105.039 63.132C104.535 63.972 103.767 64.62 102.831 65.124C101.943 64.608 101.199 63.936 100.707 63.132H105.039ZM105.495 62.592L105.375 62.616H103.083V61.284H105.915V57.072H103.635V57.576H105.387V58.908H103.707V59.388H105.387V60.78H103.083V56.004H102.543V60.78H100.347V59.4H101.847V58.908H100.347V57.636C101.007 57.432 101.715 57.192 102.255 56.892L101.787 56.508C101.343 56.784 100.527 57.108 99.8187 57.324V61.284H102.543V62.616H99.6027V63.132H100.095C100.611 64.056 101.367 64.8 102.291 65.4C101.199 65.916 99.9507 66.228 98.7027 66.408C98.7987 66.54 98.9187 66.756 98.9787 66.912C100.323 66.684 101.667 66.312 102.831 65.724C103.803 66.252 104.931 66.624 106.119 66.864C106.203 66.708 106.347 66.492 106.479 66.372C105.351 66.18 104.295 65.868 103.383 65.412C104.439 64.764 105.327 63.912 105.843 62.784L105.495 62.592ZM110.715 64.356C110.007 65.052 108.939 65.76 107.943 66.228C108.075 66.324 108.315 66.516 108.411 66.6C109.347 66.108 110.475 65.316 111.243 64.572L110.715 64.356ZM114.747 64.62C115.791 65.172 117.075 66.012 117.711 66.564L118.167 66.216C117.495 65.652 116.199 64.848 115.167 64.32L114.747 64.62ZM113.343 59.004V57.66H118.083V57.132H113.343V55.992H112.767V57.132H108.015V57.66H112.767V59.004H107.967V61.116H108.519V59.532H112.515C111.627 60.288 110.415 60.972 110.043 61.152C109.707 61.32 109.431 61.428 109.203 61.452C109.275 61.596 109.359 61.884 109.371 62.016C109.563 61.944 109.887 61.896 112.563 61.716C111.399 62.304 110.379 62.76 109.947 62.916C109.263 63.204 108.699 63.384 108.351 63.408C108.411 63.564 108.495 63.852 108.507 63.984C108.795 63.9 109.203 63.864 112.911 63.636V66.072C112.911 66.216 112.875 66.252 112.683 66.264C112.503 66.288 111.915 66.288 111.111 66.264C111.207 66.432 111.303 66.636 111.339 66.804C112.215 66.804 112.767 66.804 113.079 66.708C113.391 66.612 113.475 66.444 113.475 66.072V63.6L116.691 63.408C117.027 63.756 117.315 64.08 117.519 64.356L117.963 64.02C117.447 63.384 116.403 62.376 115.527 61.68L115.107 61.956C115.479 62.244 115.875 62.616 116.247 62.976L110.127 63.312C111.939 62.64 113.775 61.752 115.575 60.648L115.155 60.264C114.639 60.588 114.075 60.924 113.511 61.224L110.463 61.404C111.339 60.996 112.191 60.456 113.019 59.832L112.611 59.532H117.603V61.116H118.167V59.004H113.343ZM126.495 58.296C126.291 57.756 125.811 56.892 125.367 56.244L124.887 56.46C125.343 57.12 125.799 57.996 125.991 58.536L126.495 58.296ZM129.939 58.8H128.007C128.439 58.092 128.943 57.12 129.315 56.316L128.751 56.136C128.439 56.928 127.875 58.08 127.431 58.8H124.155V59.352H129.939V58.8ZM129.375 62.628V62.076H124.635V62.628H129.375ZM123.747 61.656C123.531 61.272 122.511 59.736 122.187 59.292V58.908H123.651V58.356H122.187V56.004H121.623V58.356H119.979V58.908H121.587C121.179 60.672 120.351 62.712 119.559 63.744C119.691 63.876 119.847 64.116 119.919 64.26C120.543 63.396 121.179 61.908 121.623 60.432V66.864H122.187V60.072C122.595 60.744 123.147 61.704 123.351 62.124L123.747 61.656ZM123.651 65.604V66.168H130.395V65.604H123.651ZM136.947 65.736V60.612H141.567V60.048H136.947V56.208H136.347V65.736H131.739V66.312H142.383V65.736H136.947ZM147.207 61.644L147.099 61.116C146.655 61.308 146.199 61.488 145.767 61.656V59.052H147.087V58.512H145.767V56.016H145.215V58.512H143.703V59.052H145.215V61.884C144.615 62.124 144.075 62.316 143.631 62.484L143.823 63.036L145.215 62.472V66.048C145.215 66.204 145.155 66.24 145.011 66.24C144.891 66.252 144.459 66.252 143.943 66.24C144.027 66.408 144.111 66.648 144.135 66.804C144.819 66.804 145.203 66.78 145.443 66.684C145.671 66.576 145.767 66.42 145.767 66.048V62.244L147.207 61.644ZM153.039 63.132C152.535 63.972 151.767 64.62 150.831 65.124C149.943 64.608 149.199 63.936 148.707 63.132H153.039ZM153.495 62.592L153.375 62.616H151.083V61.284H153.915V57.072H151.635V57.576H153.387V58.908H151.707V59.388H153.387V60.78H151.083V56.004H150.543V60.78H148.347V59.4H149.847V58.908H148.347V57.636C149.007 57.432 149.715 57.192 150.255 56.892L149.787 56.508C149.343 56.784 148.527 57.108 147.819 57.324V61.284H150.543V62.616H147.603V63.132H148.095C148.611 64.056 149.367 64.8 150.291 65.4C149.199 65.916 147.951 66.228 146.703 66.408C146.799 66.54 146.919 66.756 146.979 66.912C148.323 66.684 149.667 66.312 150.831 65.724C151.803 66.252 152.931 66.624 154.119 66.864C154.203 66.708 154.347 66.492 154.479 66.372C153.351 66.18 152.295 65.868 151.383 65.412C152.439 64.764 153.327 63.912 153.843 62.784L153.495 62.592ZM164.763 56.52H157.215V57.012H164.187V58.32H157.551V58.824H164.187V60.24H157.203V60.732H164.763V56.52ZM158.379 63.36C159.075 63.936 159.843 64.776 160.179 65.352L160.647 64.992C160.299 64.428 159.531 63.624 158.811 63.06L158.379 63.36ZM166.467 62.256H163.695V60.96H163.119V62.256H155.883V62.808H163.119V65.868C163.119 66.06 163.047 66.12 162.831 66.132C162.627 66.132 161.859 66.144 160.971 66.12C161.067 66.276 161.139 66.504 161.175 66.66C162.303 66.66 162.927 66.672 163.263 66.564C163.587 66.468 163.695 66.288 163.695 65.88V62.808H166.467V62.256ZM174.927 63.708H175.503V56.448H178.599V55.896H174.927V63.708ZM179.907 66H180.723V58.752H180.747L185.739 66H186.651V57.432H185.835V64.68H185.811L180.819 57.432H179.907V66ZM187.42 66H188.296L189.328 63.336H193.228L194.272 66H195.148L191.788 57.432H190.876L187.42 66ZM191.296 58.248L192.952 62.64H189.58L191.296 58.248ZM195.927 66H196.743V62.196H199.839C201.387 62.136 201.483 63.468 201.555 64.668C201.579 65.028 201.579 65.664 201.783 66H202.683C202.323 65.568 202.323 64.392 202.287 63.804C202.227 62.784 201.903 62.016 200.787 61.872V61.848C201.891 61.632 202.455 60.744 202.455 59.664C202.455 58.116 201.267 57.432 199.851 57.432H195.927V66ZM196.743 58.128H199.791C201.015 58.128 201.639 58.788 201.639 59.832C201.639 60.876 200.787 61.5 199.791 61.5H196.743V58.128ZM203.498 63.18C203.402 65.268 204.89 66.18 206.918 66.18C209.954 66.18 210.194 64.32 210.194 63.732C210.194 62.328 209.186 61.8 207.974 61.476L205.886 60.96C205.19 60.792 204.59 60.456 204.59 59.652C204.59 58.38 205.622 57.948 206.738 57.948C207.95 57.948 209.03 58.608 209.078 59.916H209.894C209.906 58.164 208.418 57.252 206.726 57.252C204.314 57.252 203.774 58.824 203.774 59.664C203.774 60.996 204.698 61.476 205.706 61.728L207.614 62.196C208.406 62.388 209.378 62.772 209.378 63.744C209.378 64.992 208.01 65.484 207.11 65.484C205.55 65.484 204.278 64.944 204.314 63.18H203.498ZM215.577 63.084H218.133V64.368C217.233 64.512 216.369 64.632 215.577 64.752V63.084ZM218.133 59.232V60.648H215.577V59.232H218.133ZM215.577 61.14H218.133V62.592H215.577V61.14ZM219.693 64.632L219.657 64.128L218.685 64.284V59.232H219.789V58.704H218.193C218.361 58.104 218.505 57.396 218.625 56.76L218.241 56.688L218.133 56.724H214.653V57.24H217.977C217.881 57.684 217.773 58.248 217.641 58.704H214.029V59.232H215.037V64.836C214.581 64.908 214.161 64.968 213.801 65.016L213.921 65.58C215.061 65.4 216.573 65.148 218.133 64.896V66.9H218.685V64.8L219.693 64.632ZM223.089 59.088C222.885 60.852 222.525 62.316 221.925 63.528C221.277 62.256 220.953 60.768 220.773 59.364C220.809 59.268 220.833 59.184 220.869 59.088H223.089ZM224.757 59.088V58.512H221.049C221.301 57.696 221.481 56.88 221.637 56.136L221.037 56.016C220.737 57.768 220.149 60.048 219.141 61.548C219.261 61.644 219.441 61.836 219.537 61.956C219.873 61.452 220.173 60.876 220.437 60.252C220.641 61.56 220.989 62.904 221.625 64.08C221.025 65.088 220.221 65.868 219.141 66.48C219.285 66.576 219.513 66.792 219.585 66.912C220.581 66.288 221.337 65.532 221.937 64.62C222.525 65.532 223.341 66.336 224.433 66.9C224.517 66.756 224.709 66.528 224.829 66.432C223.677 65.868 222.849 65.064 222.249 64.092C222.981 62.772 223.413 61.14 223.677 59.088H224.757ZM233.613 60.168C234.261 59.856 235.005 59.484 235.773 59.112V60.264H236.289V56.436H233.649V56.916H235.773V58.644C234.909 59.052 234.069 59.46 233.457 59.7L233.613 60.168ZM235.293 58.332C235.029 58.056 234.525 57.624 234.129 57.312L233.817 57.6C234.213 57.924 234.717 58.38 234.981 58.668L235.293 58.332ZM230.481 60.204L232.629 59.172V60.264H233.133V56.436H230.565V56.916H232.629V58.692C231.753 59.112 230.925 59.484 230.313 59.748L230.481 60.204ZM232.173 58.344C231.921 58.08 231.405 57.648 231.009 57.336L230.709 57.624C231.093 57.948 231.597 58.404 231.873 58.692L232.173 58.344ZM229.641 56.952C229.449 57.768 229.065 59.004 228.753 59.724L229.173 59.856C229.497 59.136 229.869 57.984 230.169 57.096L229.641 56.952ZM227.169 59.712C227.049 58.98 226.749 57.864 226.461 57L226.017 57.108C226.281 57.96 226.569 59.1 226.689 59.832L227.169 59.712ZM229.113 64.848V60.852H230.409V60.312H228.309V56.244H227.793V60.312H225.837V60.852H227.061C227.013 63.336 226.797 65.268 225.705 66.336C225.849 66.42 226.041 66.6 226.125 66.708C227.301 65.532 227.517 63.516 227.577 60.852H228.597V64.704C228.597 65.148 228.405 65.292 228.273 65.352C228.357 65.472 228.477 65.7 228.525 65.844C228.693 65.676 228.957 65.508 230.697 64.608C230.649 64.512 230.589 64.284 230.565 64.14L229.113 64.848ZM231.585 64.812H233.637V65.892H231.585V64.812ZM233.637 62.832H231.585V61.812H233.637V62.832ZM233.637 64.344H231.585V63.3H233.637V64.344ZM236.745 65.892H234.153V64.812H236.229V64.344H234.153V63.3H236.229V62.832H234.153V61.812H236.445V61.332H234.153C233.997 61.02 233.805 60.588 233.637 60.288L233.181 60.42C233.313 60.684 233.481 61.044 233.613 61.332H231.693C231.885 61.008 232.041 60.66 232.185 60.324L231.681 60.18C231.273 61.224 230.577 62.256 229.821 62.952C229.929 63.036 230.145 63.228 230.229 63.312C230.505 63.048 230.793 62.7 231.057 62.328V66.864H231.585V66.372H236.745V65.892ZM244.209 57.972C243.969 57.456 243.405 56.628 242.925 56.004L242.433 56.244C242.901 56.88 243.441 57.732 243.669 58.248L244.209 57.972ZM247.017 58.428L246.897 58.476H238.569V59.04H246.477C245.085 60.948 242.493 63.324 240.201 64.608C240.129 64.584 240.057 64.572 239.997 64.572C239.409 64.572 238.701 65.232 237.945 66.06L238.389 66.576C239.013 65.76 239.589 65.124 239.985 65.124C240.237 65.124 240.621 65.52 241.077 65.82C241.857 66.336 242.865 66.456 244.317 66.456C245.445 66.456 247.653 66.396 248.565 66.336C248.577 66.168 248.673 65.844 248.745 65.688C247.581 65.796 245.829 65.88 244.317 65.88C242.985 65.88 242.001 65.796 241.245 65.316C241.041 65.184 240.861 65.052 240.717 64.932C243.189 63.492 245.997 60.888 247.437 58.716L247.017 58.428ZM260.301 57.468C259.965 57.072 259.281 56.52 258.705 56.148L258.309 56.448C258.885 56.844 259.569 57.42 259.905 57.804L260.301 57.468ZM253.257 63.36L251.949 63.852V59.508H253.209V58.968H251.949V56.124H251.397V58.968H250.005V59.508H251.397V64.056C250.833 64.26 250.317 64.452 249.897 64.596L250.089 65.172C251.025 64.8 252.213 64.344 253.365 63.876L253.257 63.36ZM259.797 59.904C259.461 61.176 259.029 62.316 258.453 63.312C258.225 62.052 258.057 60.408 257.985 58.488H260.637V57.948H257.973C257.949 57.324 257.949 56.664 257.949 55.992H257.385C257.397 56.664 257.409 57.312 257.421 57.948H253.797V61.524C253.797 63.084 253.665 65.1 252.441 66.54C252.573 66.612 252.801 66.792 252.873 66.912C254.145 65.388 254.349 63.18 254.349 61.524V60.816H256.197C256.161 63.216 256.101 64.068 255.969 64.248C255.909 64.344 255.813 64.368 255.657 64.368C255.501 64.368 255.045 64.368 254.577 64.32C254.661 64.464 254.709 64.668 254.721 64.836C255.165 64.86 255.609 64.86 255.849 64.86C256.125 64.836 256.293 64.764 256.437 64.584C256.629 64.296 256.677 63.384 256.713 60.588C256.725 60.504 256.725 60.312 256.725 60.312H254.349V58.488H257.445C257.541 60.648 257.721 62.544 258.033 63.972C257.373 64.944 256.545 65.76 255.561 66.384C255.693 66.48 255.909 66.684 255.981 66.792C256.845 66.204 257.577 65.496 258.213 64.644C258.585 65.976 259.113 66.756 259.833 66.756C260.517 66.756 260.709 66.168 260.817 64.404C260.673 64.356 260.469 64.236 260.349 64.116C260.289 65.604 260.169 66.204 259.893 66.204C259.377 66.204 258.933 65.436 258.609 64.068C259.365 62.928 259.929 61.584 260.337 60.012L259.797 59.904ZM265.413 59.172H264.837V66.432H261.741V66.984H265.413V59.172ZM61.156 75.96H69.832V77.784H70.42V75.408H65.776L66.016 75.324C65.896 74.964 65.572 74.388 65.296 73.956L64.744 74.112C64.996 74.52 65.26 75.036 65.404 75.408H60.58V77.784H61.156V75.96ZM65.776 81.096H69.52V80.544H65.776V78.264H69.16V77.712H61.96V78.264H65.2V83.748C64.048 83.364 63.16 82.608 62.632 81.168C62.764 80.664 62.848 80.124 62.932 79.548L62.368 79.488C62.068 81.72 61.396 83.448 60.028 84.528C60.172 84.624 60.4 84.828 60.496 84.924C61.36 84.168 61.972 83.184 62.392 81.936C63.496 84.216 65.392 84.672 68.044 84.672H70.72C70.744 84.504 70.852 84.24 70.96 84.096C70.504 84.108 68.392 84.108 68.068 84.108C67.228 84.108 66.472 84.048 65.776 83.904V81.096ZM75.568 75.6V78.528H73.156V75.6H75.568ZM73.156 82.104V79.056H75.568V82.104H73.156ZM76.12 75.06H72.604V83.616H73.156V82.644H76.12V75.06ZM82.948 76.512H81.364V74.076H80.788V76.512H76.72V77.088H80.788V83.856C80.788 84.12 80.692 84.192 80.452 84.204C80.188 84.216 79.324 84.216 78.304 84.192C78.412 84.372 78.508 84.624 78.544 84.78C79.756 84.792 80.464 84.792 80.836 84.684C81.184 84.588 81.364 84.396 81.364 83.856V77.088H82.948V76.512ZM79.696 81.132C79.288 80.388 78.448 79.128 77.764 78.168L77.296 78.396C77.968 79.356 78.784 80.688 79.192 81.432L79.696 81.132ZM84.496 84.456H94.576V83.928H84.496V84.456ZM92.164 80.952H86.848V79.728H92.164V80.952ZM92.164 82.644H86.848V81.408H92.164V82.644ZM86.284 79.26V83.112H92.74V79.26H86.284ZM94.78 76.176V75.648H89.764V74.016H89.2V75.648H84.244V76.176H88.444C87.364 77.424 85.576 78.576 84.04 79.128C84.172 79.248 84.328 79.452 84.424 79.596C86.056 78.936 88 77.604 89.116 76.176H89.2V78.876H89.764V76.176H89.848C90.964 77.568 92.92 78.876 94.588 79.488C94.672 79.344 94.84 79.128 94.972 79.008C93.388 78.492 91.588 77.388 90.496 76.176H94.78ZM104.968 80.856H99.232V79.848H104.968V80.856ZM99.232 83.892V82.812H104.968V83.892H99.232ZM99.232 81.312H104.968V82.344H99.232V81.312ZM106.744 78.312V77.808H100.192C100.372 77.448 100.54 77.064 100.684 76.692H106.036V76.188H100.876C101.008 75.828 101.116 75.48 101.224 75.108C103 75 104.692 74.82 105.856 74.556L105.46 74.136C103.612 74.556 99.868 74.748 96.964 74.796C97.024 74.928 97.072 75.12 97.096 75.252C98.188 75.24 99.4 75.204 100.588 75.144C100.492 75.504 100.384 75.84 100.252 76.188H97.156V76.692H100.072C99.916 77.064 99.736 77.448 99.544 77.808H96.256V78.312H99.268C98.476 79.644 97.408 80.832 96.004 81.66C96.112 81.768 96.292 81.984 96.364 82.092C97.252 81.564 98.02 80.892 98.668 80.136V84.9H99.232V84.384H104.968V84.9H105.532V79.344H99.28C99.52 79.02 99.724 78.66 99.928 78.312H106.744ZM113.248 74.184V83.964C113.248 84.192 113.176 84.276 112.936 84.276C112.684 84.288 111.856 84.3 110.92 84.276C111.016 84.456 111.124 84.72 111.172 84.888C112.276 84.888 112.96 84.876 113.332 84.78C113.692 84.684 113.848 84.48 113.848 83.952V74.184H113.248ZM116.14 77.172C117.22 78.864 118.216 81.096 118.516 82.488L119.116 82.248C118.804 80.832 117.772 78.636 116.692 76.956L116.14 77.172ZM110.116 77.016C109.792 78.648 109.096 80.7 107.968 81.996C108.136 82.068 108.376 82.212 108.496 82.308C109.636 80.976 110.356 78.852 110.752 77.136L110.116 77.016ZM129.592 77.316H125.284V74.988H129.592V77.316ZM130.144 74.472H124.744V77.832H130.144V74.472ZM123.988 80.46C123.796 80.112 122.884 78.744 122.572 78.324V78.012H124.204V77.46H122.572V75.108C123.1 74.952 123.604 74.784 124 74.604L123.58 74.136C122.86 74.496 121.552 74.844 120.46 75.06C120.532 75.204 120.604 75.396 120.64 75.528C121.084 75.444 121.552 75.348 122.02 75.24V77.46H120.244V78.012H121.936C121.528 79.5 120.712 81.216 119.992 82.14C120.112 82.26 120.28 82.512 120.364 82.668C120.952 81.888 121.564 80.568 122.02 79.272V84.888H122.572V79.116C122.932 79.716 123.4 80.556 123.58 80.952L123.988 80.46ZM127.792 84V81.984H130.348V81.456H127.792V79.584H130.6V79.044H124.456V79.584H127.216V81.456H124.732V81.984H127.216V84H123.892V84.552H130.864V84H127.792ZM142.276 79.932H139.756L139.84 79.836C139.552 79.668 139.156 79.476 138.736 79.26C139.744 78.744 140.848 77.976 141.604 77.22L141.208 76.932L141.076 76.968H134.884V77.484H140.524C139.888 78.036 138.988 78.636 138.196 79.008C137.572 78.72 136.888 78.408 136.312 78.18L135.976 78.528C136.9 78.936 138.064 79.488 138.892 79.932H134.116V80.46H138.112V84.096C138.112 84.276 138.064 84.336 137.836 84.348C137.584 84.36 136.816 84.372 135.844 84.336C135.928 84.516 136.024 84.72 136.06 84.888C137.164 84.888 137.848 84.9 138.22 84.792C138.58 84.696 138.688 84.528 138.688 84.096V80.46H141.844C141.34 81.096 140.752 81.744 140.26 82.176L140.716 82.428C141.376 81.864 142.108 80.94 142.804 80.1L142.396 79.896L142.276 79.932ZM138.556 75.408C138.376 75.012 138.052 74.424 137.776 73.968L137.248 74.148C137.464 74.52 137.728 75.024 137.908 75.408H133.036V78.768C133.036 80.484 132.94 82.86 131.98 84.588C132.112 84.648 132.352 84.804 132.448 84.912C133.444 83.124 133.6 80.556 133.6 78.768V75.96H142.852V75.408H138.556ZM146.008 80.376V78.9H149.26V79.452C149.26 79.764 149.248 80.076 149.224 80.376H146.008ZM146.008 76.944H149.26V78.408H146.008V76.944ZM153.34 76.944V78.408H149.848V76.944H153.34ZM153.34 80.376H149.812C149.836 80.076 149.848 79.764 149.848 79.452V78.9H153.34V80.376ZM153.916 80.88V76.428H149.848V75.24H154.66V74.7H144.328V75.24H149.26V76.428H145.444V80.88H149.152C149.008 81.576 148.708 82.236 148.024 82.812C147.376 82.38 146.848 81.804 146.44 81.072L145.96 81.264C146.38 82.056 146.92 82.668 147.568 83.148C146.824 83.64 145.72 84.06 144.136 84.384C144.256 84.528 144.412 84.756 144.484 84.888C146.14 84.528 147.292 84.036 148.084 83.484C149.668 84.42 151.876 84.744 154.756 84.9C154.792 84.696 154.9 84.456 155.008 84.324C152.176 84.204 150.076 83.94 148.54 83.124C149.272 82.452 149.596 81.696 149.74 80.88H153.916ZM161.524 75.3H159.484C159.316 74.916 159.004 74.388 158.752 73.98L158.236 74.124C158.452 74.472 158.692 74.928 158.86 75.3H156.304V75.816H161.524V75.3ZM158.212 77.82C158.152 77.316 157.936 76.548 157.66 75.972L157.18 76.08C157.432 76.668 157.648 77.46 157.708 77.964L158.212 77.82ZM157.312 81.096C157.048 81.888 156.64 82.668 156.124 83.232C156.244 83.304 156.46 83.46 156.568 83.544C157.048 82.968 157.528 82.08 157.816 81.216L157.312 81.096ZM161.62 80.568V80.04H159.22V78.588H161.716V78.072H160.048C160.288 77.496 160.552 76.728 160.768 76.092L160.216 75.948C160.06 76.56 159.748 77.46 159.496 78.072H156.136V78.588H158.692V80.04H156.184V80.568H158.692V83.916C158.692 84.036 158.656 84.072 158.536 84.072C158.416 84.072 158.056 84.072 157.612 84.06C157.696 84.228 157.78 84.444 157.816 84.588C158.356 84.588 158.716 84.588 158.944 84.492C159.148 84.396 159.22 84.24 159.22 83.916V80.568H161.62ZM159.856 81.276C160.24 81.9 160.684 82.752 160.864 83.292L161.32 83.064C161.128 82.524 160.696 81.696 160.288 81.072L159.856 81.276ZM166.912 78.096H162.712V75.552C164.032 75.372 165.484 75.06 166.468 74.712L165.964 74.28C165.124 74.616 163.528 74.952 162.172 75.168V79.212C162.172 80.82 162.064 82.92 160.972 84.42C161.104 84.492 161.32 84.66 161.404 84.78C162.556 83.196 162.712 80.904 162.712 79.212V78.636H164.92V84.816H165.484V78.636H166.912V78.096ZM169.132 85.068C170.26 84.624 171.028 83.712 171.028 82.452C171.028 81.708 170.728 81.228 170.164 81.228C169.768 81.228 169.42 81.468 169.42 81.96C169.42 82.464 169.732 82.692 170.164 82.692C170.248 82.692 170.332 82.68 170.416 82.656C170.368 83.604 169.852 84.192 168.928 84.624L169.132 85.068ZM183.496 80.856L181.324 81.6V75.372H180.748V81.3C180.748 81.768 180.484 81.984 180.34 82.08C180.448 82.212 180.556 82.476 180.616 82.608C180.808 82.464 181.108 82.296 183.496 81.408V84.876H184.06V74.184H183.496V80.856ZM186.268 76.944H189.268C188.98 78.648 188.524 80.088 187.876 81.276C187.144 80.04 186.616 78.564 186.244 77.004L186.268 76.944ZM190.852 76.944V76.392H186.46C186.688 75.66 186.856 74.904 187.012 74.1L186.436 74.004C186.064 76.128 185.404 78.108 184.348 79.38C184.48 79.488 184.696 79.716 184.792 79.824C185.224 79.26 185.608 78.576 185.932 77.82C186.328 79.284 186.856 80.64 187.54 81.792C186.796 82.896 185.824 83.748 184.516 84.384C184.648 84.516 184.84 84.756 184.912 84.876C186.148 84.204 187.12 83.352 187.876 82.296C188.596 83.376 189.484 84.264 190.552 84.828C190.636 84.684 190.816 84.468 190.96 84.36C189.856 83.82 188.944 82.932 188.188 81.804C188.98 80.496 189.496 78.9 189.844 76.944H190.852ZM195.292 76.668H195.868V75.576H199.216V76.632H199.78V75.576H202.756V75.036H199.78V74.016H199.216V75.036H195.868V74.016H195.292V75.036H192.316V75.576H195.292V76.668ZM199.936 77.352C200.62 77.784 201.388 78.432 201.772 78.9L202.168 78.54C201.808 78.072 201.016 77.436 200.32 77.04L199.936 77.352ZM195.58 77.016C195.292 77.364 194.908 77.7 194.452 78.024C194.14 77.616 193.708 77.208 193.144 76.824L192.748 77.136C193.3 77.52 193.708 77.928 194.02 78.348C193.42 78.744 192.748 79.104 192.088 79.404C192.208 79.5 192.364 79.656 192.448 79.764C193.084 79.476 193.708 79.128 194.296 78.756C194.548 79.2 194.704 79.644 194.788 80.112C194.188 80.976 193.036 81.888 192.064 82.296C192.196 82.416 192.352 82.62 192.424 82.752C193.252 82.32 194.212 81.54 194.872 80.772C194.884 81.024 194.896 81.264 194.896 81.504C194.896 82.776 194.788 83.712 194.476 84.084C194.38 84.204 194.272 84.264 194.092 84.276C193.84 84.312 193.384 84.312 192.844 84.276C192.964 84.432 193.048 84.648 193.06 84.816C193.504 84.84 193.936 84.84 194.296 84.78C194.548 84.744 194.74 84.636 194.872 84.48C195.316 83.94 195.436 82.92 195.436 81.528C195.436 80.46 195.34 79.428 194.74 78.444C195.244 78.072 195.7 77.688 196.048 77.292L195.58 77.016ZM202.768 79.764V79.224H199.408C199.42 79.008 199.42 78.804 199.42 78.588V76.872H198.868V78.588C198.868 78.792 198.868 78.996 198.856 79.224H195.856V79.764H198.808C198.616 81.336 197.932 83.136 195.58 84.54C195.736 84.624 195.916 84.792 196.012 84.912C198.076 83.664 198.904 82.116 199.228 80.652C199.84 82.608 200.896 84.096 202.456 84.876C202.54 84.72 202.708 84.528 202.852 84.42C201.136 83.64 200.044 81.948 199.492 79.764H202.768ZM205.036 75.888H213.952V77.832H214.54V75.348H209.992C209.848 74.988 209.548 74.448 209.296 74.052L208.744 74.232C208.96 74.568 209.176 75 209.332 75.348H204.472V77.832H205.036V75.888ZM214.624 80.292H209.824V78.108H213.04V77.556H205.948V78.108H209.236V80.292H204.436V80.856H209.236V83.976C209.236 84.18 209.164 84.24 208.936 84.252C208.708 84.264 207.928 84.276 206.992 84.252C207.076 84.408 207.196 84.648 207.232 84.816C208.336 84.816 208.984 84.816 209.344 84.708C209.692 84.612 209.824 84.432 209.824 83.976V80.856H214.624V80.292ZM224.896 79.02V81.012H221.776V79.02H224.896ZM221.776 83.676V81.54H224.896V83.676H221.776ZM218.164 81.54H221.212V83.676H218.164V81.54ZM221.212 79.02V81.012H218.164V79.02H221.212ZM221.776 76.5H221.212V78.48H217.6V84.852H218.164V84.228H224.896V84.852H225.472V78.48H221.776V76.5ZM222.124 75.444C221.956 75.036 221.632 74.424 221.32 73.968L220.756 74.124C221.008 74.532 221.272 75.036 221.452 75.444H216.604V77.724H217.168V75.996H225.82V77.724H226.396V75.444H222.124ZM231.16 75.552C230.92 75.132 230.428 74.508 229.984 74.028L229.54 74.316C229.972 74.784 230.464 75.444 230.692 75.876L231.16 75.552ZM231.928 76.08L231.808 76.104H228.208V76.644H231.52C230.776 78.264 229.336 79.86 228.004 80.736C228.112 80.832 228.268 81.084 228.328 81.24C228.868 80.844 229.432 80.352 229.972 79.776V84.876H230.524V79.452C231.016 79.968 231.712 80.76 231.988 81.12L232.36 80.652C232.096 80.376 231.16 79.38 230.692 78.924C231.316 78.132 231.856 77.22 232.228 76.284L231.928 76.08ZM235.852 81.048V79.032H237.928V81.048H235.852ZM233.26 81.048V79.032H235.3V81.048H233.26ZM235.3 76.536V78.504H233.26V76.536H235.3ZM237.928 76.536V78.504H235.852V76.536H237.928ZM235.852 75.996V74.004H235.3V75.996H232.72V82.164H233.26V81.576H235.3V84.852H235.852V81.576H237.928V82.092H238.492V75.996H235.852ZM248.5 75.78C247.996 75.252 246.964 74.508 246.124 74.016L245.776 74.388C246.628 74.892 247.648 75.672 248.14 76.212L248.5 75.78ZM243.952 80.424C243.748 80.076 242.848 78.708 242.56 78.312V78.012H244.024V77.46H242.56V75.096C243.1 74.952 243.604 74.784 244 74.592L243.58 74.124C242.86 74.484 241.552 74.832 240.46 75.048C240.532 75.192 240.604 75.396 240.64 75.516C241.084 75.432 241.552 75.348 242.008 75.24V77.46H240.244V78.012H241.936C241.528 79.5 240.712 81.216 239.992 82.128C240.112 82.26 240.28 82.512 240.364 82.668C240.952 81.9 241.552 80.58 242.008 79.296V84.9H242.56V79.092C242.908 79.692 243.376 80.532 243.532 80.904L243.952 80.424ZM244.696 78.012C244.564 79.2 244.252 80.772 243.7 81.684L244.168 81.888C244.708 80.94 245.008 79.332 245.152 78.12L244.696 78.012ZM247.132 84.288C246.652 84.288 246.556 84.192 246.556 83.736V82.416C248.14 80.388 249.28 77.844 250.132 74.856L249.58 74.748C248.872 77.328 247.9 79.62 246.556 81.48V76.464H246.004V82.2C245.344 83.004 244.6 83.712 243.772 84.312C243.916 84.408 244.144 84.6 244.252 84.708C244.888 84.216 245.464 83.676 246.004 83.076V83.712C246.004 84.576 246.232 84.792 247.096 84.792H248.824C249.64 84.792 249.796 84.324 249.868 82.656C249.712 82.62 249.496 82.524 249.364 82.416C249.316 83.964 249.244 84.288 248.8 84.288H247.132ZM249.184 78.276C249.76 79.416 250.264 80.916 250.408 81.924L250.948 81.768C250.78 80.784 250.276 79.272 249.688 78.132L249.184 78.276ZM255.568 75.672C255.328 75.216 254.788 74.532 254.284 74.028L253.864 74.304C254.344 74.808 254.872 75.528 255.112 75.996L255.568 75.672ZM256.42 76.08L256.312 76.104H252.472V76.644H255.988C255.148 78.336 253.504 79.968 252.004 80.88C252.112 80.976 252.256 81.228 252.328 81.384C253.024 80.916 253.768 80.316 254.452 79.608V84.864H255.004V79.44C255.58 80.052 256.432 81 256.756 81.432L257.14 80.928C256.828 80.604 255.64 79.356 255.124 78.864C255.784 78.072 256.36 77.208 256.744 76.296L256.42 76.08ZM259.576 84.024C258.988 84.024 258.88 83.904 258.88 83.304V74.1H258.304V83.28C258.304 84.288 258.58 84.552 259.552 84.552H261.652C262.636 84.552 262.804 83.94 262.888 82.068C262.72 82.032 262.504 81.924 262.36 81.804C262.288 83.592 262.204 84.024 261.628 84.024H259.576ZM268.54 77.7V76.488H270.58V77.7H268.54ZM268.54 74.844H270.58V76.032H268.54V74.844ZM273.232 76.032H271.12V74.844H273.232V76.032ZM273.232 77.7H271.12V76.488H273.232V77.7ZM268.012 79.668H270.58V81.336C269.8 81.384 269.08 81.432 268.516 81.456L268.576 81.972C269.656 81.888 271.144 81.792 272.62 81.672C272.728 81.912 272.788 82.128 272.836 82.32L273.292 82.176C273.136 81.648 272.74 80.76 272.332 80.112L271.912 80.22C272.092 80.52 272.272 80.88 272.428 81.228L271.108 81.312V79.668H273.784V82.824C273.784 82.944 273.748 82.992 273.592 83.004C273.436 83.016 272.908 83.016 272.236 83.004C272.32 83.136 272.404 83.304 272.44 83.46C273.256 83.46 273.736 83.46 274.012 83.376C274.264 83.28 274.336 83.148 274.336 82.812V79.164H271.12V78.18H273.784V74.364H268V78.18H270.58V79.164H267.472V83.328H268.012V79.668ZM266.98 76.284C266.524 75.852 265.588 75.204 264.832 74.772L264.436 75.156C265.216 75.6 266.128 76.272 266.584 76.716L266.98 76.284ZM266.392 78.252H264.208V78.804H265.828V82.896C265.3 83.076 264.712 83.664 264.064 84.396L264.448 84.864C265.108 84.012 265.708 83.34 266.128 83.34C266.428 83.34 266.848 83.76 267.304 84.06C268.156 84.6 269.152 84.744 270.616 84.744C271.9 84.744 274.012 84.684 274.78 84.624C274.792 84.456 274.876 84.18 274.948 84.024C273.736 84.12 272.056 84.216 270.628 84.216C269.284 84.216 268.312 84.12 267.508 83.604C266.956 83.268 266.68 82.992 266.392 82.884V78.252Z" fill="white"/>
</svg>
