<svg width="32" height="32" viewBox="0 0 32 32" fill="none" xmlns="http://www.w3.org/2000/svg">
<path d="M15.7173 4C15.7173 4 6.07282 4.04418 7.28973 15.7345C7.28973 15.7345 7.11571 15.8814 6.81124 15.6471C6.81124 15.6471 6.2326 15.1315 6 16.1176C6 16.1176 6.18911 20.7352 7.26041 20.8677L7.6944 20.7794C7.6944 20.7794 9.44649 27.4114 15.7163 28H16.2836C22.5545 27.4114 24.3066 20.7794 24.3066 20.7794L24.7406 20.8677C25.8119 20.7352 26 16.1176 26 16.1176C25.7683 15.1325 25.1888 15.6471 25.1888 15.6471C24.8843 15.8824 24.7113 15.7345 24.7113 15.7345C25.9272 4.04418 16.2827 4 16.2827 4H15.7173Z" stroke="white" stroke-miterlimit="10"/>
</svg>
