<svg width="18" height="18" viewBox="0 0 18 18" fill="none" xmlns="http://www.w3.org/2000/svg">
<circle cx="9" cy="9" r="6.75" fill="#E6001E"/>
<path d="M5.8501 12.96H7.14492V7.40117H7.17756L10.7138 12.96H12.1501V5.39999H10.8553V10.9694H10.8335L7.28637 5.39999H5.8501V12.96Z" fill="white"/>
<path fill-rule="evenodd" clip-rule="evenodd" d="M9 17.1C13.4735 17.1 17.1 13.4735 17.1 9C17.1 4.52649 13.4735 0.9 9 0.9C4.52649 0.9 0.9 4.52649 0.9 9C0.9 13.4735 4.52649 17.1 9 17.1ZM9 18C13.9706 18 18 13.9706 18 9C18 4.02944 13.9706 0 9 0C4.02944 0 0 4.02944 0 9C0 13.9706 4.02944 18 9 18Z" fill="#E6001E"/>
</svg>
