<svg width="33" height="32" viewBox="0 0 33 32" fill="none" xmlns="http://www.w3.org/2000/svg">
<path d="M28.5888 21.0843C28.9466 21.0843 29 21.03 29 20.6704V16.3308C29 15.9669 28.9669 15.9039 28.5579 15.9039H26.9281V10.5495C26.9281 10.2294 26.8587 10.1601 26.5351 10.158H23.9303V8.15939C23.9303 7.23002 23.9217 6.3007 23.9431 5.37239C23.9454 5.32484 23.938 5.27734 23.9213 5.23276C23.9046 5.18818 23.8789 5.1474 23.8459 5.11306C23.7658 5.04243 23.6633 5.00241 23.5565 5C19.4604 5.01209 15.3643 5.01533 11.2682 5.00964H6.95139C6.81889 5.00253 6.68602 5.00598 6.55409 5.02019C5.83861 5.09329 5.17754 5.43483 4.70421 5.97585C4.23089 6.51687 3.98054 7.21717 4.00374 7.93536C3.99875 13.5003 3.99875 19.0651 4.00374 24.63C4.00037 24.8142 4.01976 24.9981 4.06143 25.1775C4.17289 25.7097 4.47072 26.1848 4.9014 26.5173C5.33208 26.8498 5.86738 27.0179 6.41101 26.9914H14.6099C18.5886 26.9914 22.5665 26.9941 26.5436 26.9998C26.6532 27.0028 26.7598 26.9648 26.8426 26.8932C26.877 26.8546 26.9031 26.8095 26.9194 26.7606C26.9358 26.7116 26.942 26.6597 26.9377 26.6083C26.9238 25.5039 26.9259 24.3985 26.9291 23.2952V21.0854L28.5888 21.0843ZM4.87949 6.56641C5.05484 6.28614 5.29005 6.04806 5.5683 5.8693C5.84656 5.69055 6.16098 5.57555 6.48897 5.53247C6.71559 5.5075 6.9434 5.495 7.17139 5.49509H23.4401V10.159H6.99305C6.45768 10.1925 5.92685 10.0432 5.48767 9.73545C5.04849 9.42773 4.72705 8.97992 4.57619 8.46562C4.48285 8.14664 4.46147 7.81097 4.51355 7.48274C4.56562 7.1545 4.68984 6.84195 4.87734 6.56745L4.87949 6.56641ZM26.4368 26.5059H6.48148C6.21428 26.5281 5.94548 26.492 5.69365 26.4C5.44182 26.3081 5.21299 26.1624 5.0231 25.9733C4.8332 25.7842 4.68677 25.5562 4.59392 25.3049C4.50107 25.0536 4.46402 24.785 4.48539 24.518L4.54093 10.046L5.78621 10.5187C6.18601 10.6722 6.61315 10.742 7.04109 10.7235H26.3503V15.9017H22.3902C22.0463 15.9017 21.9769 15.9722 21.9748 16.3222V20.6597C21.9748 21.0214 22.0399 21.0864 22.4019 21.0864H26.4379L26.4368 26.5059ZM22.4927 20.5722V16.4247H28.4265V20.5722H22.4927Z" fill="white" stroke="white" stroke-width="0.5"/>
</svg>
