<svg width="32" height="32" viewBox="0 0 32 32" fill="none" xmlns="http://www.w3.org/2000/svg">
<path d="M27.6611 17.8839C27.9558 17.8234 28 17.7697 28 17.4713V14.5268C28 14.2121 27.9664 14.1727 27.6496 14.1093L25.3917 13.6536C25.2768 13.642 25.1699 13.5898 25.0899 13.5065C25.0099 13.4231 24.9621 13.3139 24.9551 13.1986C24.9436 13.0574 24.9111 12.9187 24.859 12.7869C24.7198 12.4587 24.5711 12.1353 24.4165 11.7966L24.1564 11.2206L25.5963 9.05665C25.7547 8.81769 25.7489 8.76211 25.5502 8.56345C24.8513 7.85968 24.1518 7.16065 23.4517 6.46647C23.2328 6.24766 23.2002 6.24368 22.941 6.41258L22.6532 6.60471C22.0993 6.96459 21.5472 7.3243 20.9971 7.69186C20.9062 7.7637 20.7931 7.80197 20.6772 7.79987C20.5614 7.79777 20.4498 7.75547 20.3615 7.68038C19.9094 7.34177 19.3792 7.12254 18.8199 7.04308C18.6965 7.03378 18.5803 6.9818 18.4913 6.89594C18.4023 6.81008 18.3459 6.69575 18.3322 6.57284C18.2112 5.95 18.0855 5.32544 17.9607 4.70548L17.881 4.31584C17.8273 4.04424 17.7726 4 17.4971 4C16.5084 4 15.5195 4 14.5308 4C14.2226 4 14.1738 4.02304 14.1066 4.36949C13.9597 5.12477 13.8098 5.87902 13.6524 6.63142C13.633 6.7237 13.5886 6.80884 13.5239 6.87743C13.4592 6.94602 13.3768 6.99542 13.2858 7.02012C12.6292 7.12803 12.0089 7.39496 11.4791 7.79753L11.3256 7.91257L9.10121 6.42523C8.8257 6.24193 8.76727 6.24571 8.53592 6.47795L6.48826 8.5337C6.25883 8.76498 6.25398 8.82143 6.44022 9.1007L6.69849 9.49432C7.02968 9.99816 7.36088 10.5018 7.69782 11.0018C7.76906 11.0922 7.80774 11.204 7.80774 11.319C7.80774 11.4341 7.76906 11.5459 7.69782 11.6363C7.3648 12.0958 7.14428 12.6269 7.05379 13.1871C7.04189 13.3103 6.98738 13.4257 6.89981 13.5133C6.81224 13.6008 6.69707 13.6551 6.57381 13.667C5.98247 13.7812 5.39099 13.9011 4.79966 14.0191L4.31967 14.1152C4.03169 14.1728 4.00096 14.2178 4 14.5163V17.4607C4 17.7717 4.04225 17.8224 4.34944 17.8858L5.22597 18.068C5.68483 18.164 6.14471 18.26 6.60357 18.356C6.7138 18.3698 6.81612 18.4201 6.89442 18.4989C6.97271 18.5777 7.02243 18.6806 7.03551 18.7909C7.1369 19.3596 7.36047 19.8995 7.69103 20.3733C7.76371 20.4638 7.80329 20.5764 7.80329 20.6924C7.80329 20.8085 7.76371 20.9211 7.69103 21.0115C7.37232 21.4751 7.06042 21.9434 6.74747 22.4117L6.41725 22.903C6.23582 23.1756 6.24158 23.2447 6.46717 23.4712L8.49373 25.4864C8.77116 25.7609 8.7999 25.7668 9.12628 25.5509L11.3178 24.0999L11.4695 24.2083C11.9646 24.5848 12.5421 24.8384 13.1543 24.9482C13.2833 24.9608 13.4041 25.017 13.4965 25.1078C13.5889 25.1986 13.6472 25.3184 13.662 25.4471C13.813 26.2065 13.9703 26.9645 14.1335 27.7207C14.1853 27.9626 14.2294 28 14.478 28C15.4956 28 16.5134 28 17.5316 28C17.761 28 17.8253 27.9712 17.881 27.7006L18.0193 27.0288C18.1326 26.4808 18.2448 25.9318 18.3514 25.3829C18.3648 25.2748 18.4147 25.1745 18.4927 25.0984C18.5707 25.0224 18.6721 24.9751 18.7805 24.9644C19.3556 24.8722 19.9013 24.6463 20.3733 24.3051C20.457 24.2361 20.5619 24.198 20.6704 24.1971C20.779 24.1962 20.8844 24.2328 20.9693 24.3004C21.4598 24.6334 21.9542 24.9616 22.4486 25.2899L22.9037 25.5921C23.1687 25.7687 23.2434 25.7601 23.4709 25.5317L25.5021 23.4904C25.746 23.2448 25.75 23.2082 25.5647 22.9251L25.2603 22.4635C24.9396 21.975 24.6201 21.4875 24.2956 21.0029C24.2272 20.9153 24.1899 20.8073 24.1899 20.6962C24.1899 20.5851 24.2272 20.4773 24.2956 20.3897C24.6402 19.9203 24.8679 19.3755 24.9598 18.8005C24.9719 18.6879 25.0219 18.5826 25.1016 18.5022C25.1813 18.4218 25.2861 18.3709 25.3985 18.3579C25.8699 18.2619 26.3411 18.1661 26.8115 18.0702L27.6611 17.8839ZM24.8696 17.9289C24.7903 17.9335 24.7151 17.9659 24.6572 18.0202C24.5993 18.0746 24.5625 18.1476 24.5529 18.2264C24.5126 18.4184 24.4751 18.6104 24.4376 18.8023C24.3417 19.2767 24.1452 19.7248 23.8616 20.117L23.7809 20.2332C23.4757 20.6689 23.4757 20.6689 23.8588 21.2332C24.1285 21.6295 24.3897 22.0307 24.646 22.4232L25.0885 23.0949L23.1139 25.1017L20.9357 23.6622C20.6554 23.476 20.6554 23.4788 20.4164 23.6544C19.7853 24.1272 19.0424 24.4289 18.2602 24.5298C18.0865 24.5519 17.9722 24.6179 17.9223 24.877C17.8503 25.2811 17.7697 25.6832 17.69 26.0862C17.6257 26.4077 17.5605 26.7302 17.4981 27.0537C17.4885 27.1789 17.43 27.2954 17.3354 27.3782C17.2408 27.4609 17.1175 27.5032 16.9921 27.496H16.9796C16.4584 27.4883 15.9372 27.4904 15.4082 27.4904H14.6154L14.1766 25.3599C14.1478 25.216 14.1199 25.0721 14.0892 24.9281C14.022 24.6133 13.9932 24.5863 13.6505 24.5134C13.2541 24.4425 12.8651 24.3359 12.488 24.1947C12.2137 24.0706 11.9535 23.9171 11.7123 23.7369L11.5789 23.6411C11.5089 23.5798 11.4191 23.546 11.326 23.546C11.233 23.546 11.1432 23.5798 11.0732 23.6411C10.6066 23.9578 10.1352 24.2667 9.66673 24.5757L8.88137 25.094L6.86559 23.116L7.37135 22.3482C7.69582 21.8549 8.02047 21.3617 8.35358 20.8752C8.38275 20.8466 8.40573 20.8126 8.42155 20.7749C8.43737 20.7373 8.44569 20.6967 8.44569 20.6559C8.44569 20.615 8.43737 20.5747 8.42155 20.5371C8.40573 20.4994 8.38275 20.4652 8.35358 20.4366C7.84963 19.8049 7.53447 19.0439 7.44447 18.241C7.41952 18.0337 7.37725 17.9749 7.10558 17.9193L4.91192 17.4713C4.86488 17.4617 4.81604 17.4491 4.76708 17.4347L4.49826 17.3647V14.5873L7.10066 14.0585C7.39921 13.9961 7.4146 13.9625 7.44916 13.7187C7.54908 12.943 7.85211 12.2075 8.32757 11.5864C8.39377 11.5142 8.42977 11.4193 8.42834 11.3214C8.42691 11.2234 8.38811 11.1297 8.31983 11.0594C8.004 10.593 7.69601 10.1218 7.39362 9.65927L6.8827 8.87999L8.87575 6.88962L9.62361 7.37813C10.0902 7.68043 10.5634 7.98748 11.0261 8.30994C11.1052 8.38847 11.2122 8.43248 11.3237 8.43248C11.4352 8.43248 11.542 8.38847 11.6211 8.30994C12.2267 7.83136 12.9544 7.53221 13.7215 7.44631C13.9384 7.4204 14.0317 7.3272 14.0759 7.09111C14.2093 6.38094 14.3639 5.67563 14.5146 4.9693L14.5366 4.87323C14.555 4.77893 14.6024 4.69291 14.6723 4.62699C14.7422 4.56106 14.8311 4.51872 14.9264 4.50585C15.5235 4.49818 16.1206 4.4981 16.7254 4.49906H17.3973L17.7929 6.4482C17.8409 6.68556 17.8871 6.92317 17.9319 7.16117C17.9684 7.35311 18.0548 7.40407 18.1805 7.4271C18.3063 7.45013 18.4513 7.47799 18.5867 7.50582L18.8525 7.56042C19.3906 7.68494 19.8948 7.92648 20.329 8.26777C20.6515 8.49521 20.6514 8.49329 20.9922 8.26777L23.1043 6.8772L25.0943 8.87132L24.9734 9.05571C24.8544 9.23614 24.7343 9.42131 24.6144 9.60749C24.3264 10.0585 24.0239 10.5259 23.6984 10.976C23.6529 11.0193 23.6166 11.0713 23.5918 11.129C23.567 11.1868 23.5543 11.249 23.5543 11.3118C23.5543 11.3746 23.567 11.4368 23.5918 11.4945C23.6166 11.5523 23.6529 11.6045 23.6984 11.6478C24.1621 12.2456 24.4475 12.9622 24.522 13.715C24.5527 13.9511 24.5989 13.998 24.8475 14.0479L25.1201 14.1028C25.7662 14.2314 26.4132 14.3598 27.0611 14.4807C27.1244 14.4866 27.186 14.505 27.2421 14.5348C27.2981 14.5646 27.3478 14.6052 27.3881 14.6543C27.4283 14.7034 27.4584 14.7601 27.4767 14.8209C27.4949 14.8817 27.5009 14.9454 27.4942 15.0086C27.4846 15.6567 27.4846 16.3058 27.4942 16.9558C27.5003 17.0171 27.4941 17.0788 27.4762 17.1376C27.4583 17.1965 27.4289 17.2514 27.3897 17.2988C27.3505 17.3463 27.3023 17.3856 27.2479 17.4143C27.1935 17.4431 27.1341 17.4607 27.0728 17.4664C26.7433 17.5303 26.4142 17.5969 26.0859 17.666C25.6895 17.7658 25.2795 17.8502 24.8696 17.9289Z" fill="white"/>
<path d="M16.0006 10.5299C15.282 10.5284 14.57 10.6684 13.9056 10.942C13.2412 11.2155 12.6373 11.6173 12.1282 12.1243C11.619 12.6312 11.2149 13.2334 10.9385 13.8965C10.6622 14.5596 10.5191 15.2707 10.5176 15.989C10.5162 16.7074 10.6562 17.419 10.9299 18.0832C11.2035 18.7474 11.6054 19.3511 12.1125 19.8601C12.6195 20.3691 13.2219 20.7734 13.8852 21.0497C14.5485 21.3259 15.2598 21.4688 15.9783 21.4702H15.9966C16.718 21.4716 17.4324 21.3298 18.0986 21.0532C18.7648 20.7766 19.3695 20.3708 19.8777 19.859C20.6397 19.0929 21.1577 18.1184 21.3664 17.0584C21.5751 15.9984 21.4652 14.9002 21.0505 13.9026C20.6358 12.905 19.9348 12.0524 19.0361 11.4525C18.1374 10.8526 17.0812 10.5323 16.0006 10.5317V10.5299ZM19.491 19.5354C19.0367 19.9878 18.4976 20.3464 17.9046 20.5904C17.3116 20.8345 16.6763 20.9594 16.035 20.9578H15.9804C15.3205 20.9589 14.6671 20.8279 14.0586 20.5726C13.4502 20.3173 12.899 19.9428 12.4375 19.4712C11.9761 18.9996 11.6135 18.4404 11.3716 17.8266C11.1297 17.2129 11.0131 16.5569 11.0288 15.8974C11.0393 15.2452 11.1796 14.6015 11.4415 14.004C11.7034 13.4066 12.0817 12.8672 12.5542 12.4174C13.5024 11.5186 14.7664 11.0292 16.0728 11.0551C17.3791 11.0811 18.6228 11.6202 19.5346 12.5558C20.4464 13.4915 20.9529 14.7484 20.9448 16.0546C20.9366 17.3609 20.4144 18.6112 19.491 19.5354Z" fill="white"/>
<path d="M27.6611 17.8839C27.9558 17.8234 28 17.7697 28 17.4713V14.5268C28 14.2121 27.9664 14.1727 27.6496 14.1093L25.3917 13.6536C25.2768 13.642 25.1699 13.5898 25.0899 13.5065C25.0099 13.4231 24.9621 13.3139 24.9551 13.1986C24.9436 13.0574 24.9111 12.9187 24.859 12.7869C24.7198 12.4587 24.5711 12.1353 24.4165 11.7966L24.1564 11.2206L25.5963 9.05665C25.7547 8.81769 25.7489 8.76211 25.5502 8.56345C24.8513 7.85968 24.1518 7.16065 23.4517 6.46647C23.2328 6.24766 23.2002 6.24368 22.941 6.41258L22.6532 6.60471C22.0993 6.96459 21.5472 7.3243 20.9971 7.69186C20.9062 7.7637 20.7931 7.80197 20.6772 7.79987C20.5614 7.79777 20.4498 7.75547 20.3615 7.68038C19.9094 7.34177 19.3792 7.12254 18.8199 7.04308C18.6965 7.03378 18.5803 6.9818 18.4913 6.89594C18.4023 6.81008 18.3459 6.69575 18.3322 6.57284C18.2112 5.95 18.0855 5.32544 17.9607 4.70548L17.881 4.31584C17.8273 4.04424 17.7726 4 17.4971 4C16.5084 4 15.5195 4 14.5308 4C14.2226 4 14.1738 4.02304 14.1066 4.36949C13.9597 5.12477 13.8098 5.87902 13.6524 6.63142C13.633 6.7237 13.5886 6.80884 13.5239 6.87743C13.4592 6.94602 13.3768 6.99542 13.2858 7.02012C12.6292 7.12803 12.0089 7.39496 11.4791 7.79753L11.3256 7.91257L9.10121 6.42523C8.8257 6.24193 8.76727 6.24571 8.53592 6.47795L6.48826 8.5337C6.25883 8.76498 6.25398 8.82143 6.44022 9.1007L6.69849 9.49432C7.02968 9.99816 7.36088 10.5018 7.69782 11.0018C7.76906 11.0922 7.80774 11.204 7.80774 11.319C7.80774 11.4341 7.76906 11.5459 7.69782 11.6363C7.3648 12.0958 7.14428 12.6269 7.05379 13.1871C7.04189 13.3103 6.98738 13.4257 6.89981 13.5133C6.81224 13.6008 6.69707 13.6551 6.57381 13.667C5.98247 13.7812 5.39099 13.9011 4.79966 14.0191L4.31967 14.1152C4.03169 14.1728 4.00096 14.2178 4 14.5163V17.4607C4 17.7717 4.04225 17.8224 4.34944 17.8858L5.22597 18.068C5.68483 18.164 6.14471 18.26 6.60357 18.356C6.7138 18.3698 6.81612 18.4201 6.89442 18.4989C6.97271 18.5777 7.02243 18.6806 7.03551 18.7909C7.1369 19.3596 7.36047 19.8995 7.69103 20.3733C7.76371 20.4638 7.80329 20.5764 7.80329 20.6924C7.80329 20.8085 7.76371 20.9211 7.69103 21.0115C7.37232 21.4751 7.06042 21.9434 6.74747 22.4117L6.41725 22.903C6.23582 23.1756 6.24158 23.2447 6.46717 23.4712L8.49373 25.4864C8.77116 25.7609 8.7999 25.7668 9.12628 25.5509L11.3178 24.0999L11.4695 24.2083C11.9646 24.5848 12.5421 24.8384 13.1543 24.9482C13.2833 24.9608 13.4041 25.017 13.4965 25.1078C13.5889 25.1986 13.6472 25.3184 13.662 25.4471C13.813 26.2065 13.9703 26.9645 14.1335 27.7207C14.1853 27.9626 14.2294 28 14.478 28C15.4956 28 16.5134 28 17.5316 28C17.761 28 17.8253 27.9712 17.881 27.7006L18.0193 27.0288C18.1326 26.4808 18.2448 25.9318 18.3514 25.3829C18.3648 25.2748 18.4147 25.1745 18.4927 25.0984C18.5707 25.0224 18.6721 24.9751 18.7805 24.9644C19.3556 24.8722 19.9013 24.6463 20.3733 24.3051C20.457 24.2361 20.5619 24.198 20.6704 24.1971C20.779 24.1962 20.8844 24.2328 20.9693 24.3004C21.4598 24.6334 21.9542 24.9616 22.4486 25.2899L22.9037 25.5921C23.1687 25.7687 23.2434 25.7601 23.4709 25.5317L25.5021 23.4904C25.746 23.2448 25.75 23.2082 25.5647 22.9251L25.2603 22.4635C24.9396 21.975 24.6201 21.4875 24.2956 21.0029C24.2272 20.9153 24.1899 20.8073 24.1899 20.6962C24.1899 20.5851 24.2272 20.4773 24.2956 20.3897C24.6402 19.9203 24.8679 19.3755 24.9598 18.8005C24.9719 18.6879 25.0219 18.5826 25.1016 18.5022C25.1813 18.4218 25.2861 18.3709 25.3985 18.3579C25.8699 18.2619 26.3411 18.1661 26.8115 18.0702L27.6611 17.8839ZM24.8696 17.9289C24.7903 17.9335 24.7151 17.9659 24.6572 18.0202C24.5993 18.0746 24.5625 18.1476 24.5529 18.2264C24.5126 18.4184 24.4751 18.6104 24.4376 18.8023C24.3417 19.2767 24.1452 19.7248 23.8616 20.117L23.7809 20.2332C23.4757 20.6689 23.4757 20.6689 23.8588 21.2332C24.1285 21.6295 24.3897 22.0307 24.646 22.4232L25.0885 23.0949L23.1139 25.1017L20.9357 23.6622C20.6554 23.476 20.6554 23.4788 20.4164 23.6544C19.7853 24.1272 19.0424 24.4289 18.2602 24.5298C18.0865 24.5519 17.9722 24.6179 17.9223 24.877C17.8503 25.2811 17.7697 25.6832 17.69 26.0862C17.6257 26.4077 17.5605 26.7302 17.4981 27.0537C17.4885 27.1789 17.43 27.2954 17.3354 27.3782C17.2408 27.4609 17.1175 27.5032 16.9921 27.496H16.9796C16.4584 27.4883 15.9372 27.4904 15.4082 27.4904H14.6154L14.1766 25.3599C14.1478 25.216 14.1199 25.0721 14.0892 24.9281C14.022 24.6133 13.9932 24.5863 13.6505 24.5134C13.2541 24.4425 12.8651 24.3359 12.488 24.1947C12.2137 24.0706 11.9535 23.9171 11.7123 23.7369L11.5789 23.6411C11.5089 23.5798 11.4191 23.546 11.326 23.546C11.233 23.546 11.1432 23.5798 11.0732 23.6411C10.6066 23.9578 10.1352 24.2667 9.66673 24.5757L8.88137 25.094L6.86559 23.116L7.37135 22.3482C7.69582 21.8549 8.02047 21.3617 8.35358 20.8752C8.38275 20.8466 8.40573 20.8126 8.42155 20.7749C8.43737 20.7373 8.44569 20.6967 8.44569 20.6559C8.44569 20.615 8.43737 20.5747 8.42155 20.5371C8.40573 20.4994 8.38275 20.4652 8.35358 20.4366C7.84963 19.8049 7.53447 19.0439 7.44447 18.241C7.41952 18.0337 7.37725 17.9749 7.10558 17.9193L4.91192 17.4713C4.86488 17.4617 4.81604 17.4491 4.76708 17.4347L4.49826 17.3647V14.5873L7.10066 14.0585C7.39921 13.9961 7.4146 13.9625 7.44916 13.7187C7.54908 12.943 7.85211 12.2075 8.32757 11.5864C8.39377 11.5142 8.42977 11.4193 8.42834 11.3214C8.42691 11.2234 8.38811 11.1297 8.31983 11.0594C8.004 10.593 7.69601 10.1218 7.39362 9.65927L6.8827 8.87999L8.87575 6.88962L9.62361 7.37813C10.0902 7.68043 10.5634 7.98748 11.0261 8.30994C11.1052 8.38847 11.2122 8.43248 11.3237 8.43248C11.4352 8.43248 11.542 8.38847 11.6211 8.30994C12.2267 7.83136 12.9544 7.53221 13.7215 7.44631C13.9384 7.4204 14.0317 7.3272 14.0759 7.09111C14.2093 6.38094 14.3639 5.67563 14.5146 4.9693L14.5366 4.87323C14.555 4.77893 14.6024 4.69291 14.6723 4.62699C14.7422 4.56106 14.8311 4.51872 14.9264 4.50585C15.5235 4.49818 16.1206 4.4981 16.7254 4.49906H17.3973L17.7929 6.4482C17.8409 6.68556 17.8871 6.92317 17.9319 7.16117C17.9684 7.35311 18.0548 7.40407 18.1805 7.4271C18.3063 7.45013 18.4513 7.47799 18.5867 7.50582L18.8525 7.56042C19.3906 7.68494 19.8948 7.92648 20.329 8.26777C20.6515 8.49521 20.6514 8.49329 20.9922 8.26777L23.1043 6.8772L25.0943 8.87132L24.9734 9.05571C24.8544 9.23614 24.7343 9.42131 24.6144 9.60749C24.3264 10.0585 24.0239 10.5259 23.6984 10.976C23.6529 11.0193 23.6166 11.0713 23.5918 11.129C23.567 11.1868 23.5543 11.249 23.5543 11.3118C23.5543 11.3746 23.567 11.4368 23.5918 11.4945C23.6166 11.5523 23.6529 11.6045 23.6984 11.6478C24.1621 12.2456 24.4475 12.9622 24.522 13.715C24.5527 13.9511 24.5989 13.998 24.8475 14.0479L25.1201 14.1028C25.7662 14.2314 26.4132 14.3598 27.0611 14.4807C27.1244 14.4866 27.186 14.505 27.2421 14.5348C27.2981 14.5646 27.3478 14.6052 27.3881 14.6543C27.4283 14.7034 27.4584 14.7601 27.4767 14.8209C27.4949 14.8817 27.5009 14.9454 27.4942 15.0086C27.4846 15.6567 27.4846 16.3058 27.4942 16.9558C27.5003 17.0171 27.4941 17.0788 27.4762 17.1376C27.4583 17.1965 27.4289 17.2514 27.3897 17.2988C27.3505 17.3463 27.3023 17.3856 27.2479 17.4143C27.1935 17.4431 27.1341 17.4607 27.0728 17.4664C26.7433 17.5303 26.4142 17.5969 26.0859 17.666C25.6895 17.7658 25.2795 17.8502 24.8696 17.9289Z" stroke="white" stroke-width="0.5"/>
<path d="M16.0006 10.5299C15.282 10.5284 14.57 10.6684 13.9056 10.942C13.2412 11.2155 12.6373 11.6173 12.1282 12.1243C11.619 12.6312 11.2149 13.2334 10.9385 13.8965C10.6622 14.5596 10.5191 15.2707 10.5176 15.989C10.5162 16.7074 10.6562 17.419 10.9299 18.0832C11.2035 18.7474 11.6054 19.3511 12.1125 19.8601C12.6195 20.3691 13.2219 20.7734 13.8852 21.0497C14.5485 21.3259 15.2598 21.4688 15.9783 21.4702H15.9966C16.718 21.4716 17.4324 21.3298 18.0986 21.0532C18.7648 20.7766 19.3695 20.3708 19.8777 19.859C20.6397 19.0929 21.1577 18.1184 21.3664 17.0584C21.5751 15.9984 21.4652 14.9002 21.0505 13.9026C20.6358 12.905 19.9348 12.0524 19.0361 11.4525C18.1374 10.8526 17.0812 10.5323 16.0006 10.5317V10.5299ZM19.491 19.5354C19.0367 19.9878 18.4976 20.3464 17.9046 20.5904C17.3116 20.8345 16.6763 20.9594 16.035 20.9578H15.9804C15.3205 20.9589 14.6671 20.8279 14.0586 20.5726C13.4502 20.3173 12.899 19.9428 12.4375 19.4712C11.9761 18.9996 11.6135 18.4404 11.3716 17.8266C11.1297 17.2129 11.0131 16.5569 11.0288 15.8974C11.0393 15.2452 11.1796 14.6015 11.4415 14.004C11.7034 13.4066 12.0817 12.8672 12.5542 12.4174C13.5024 11.5186 14.7664 11.0292 16.0728 11.0551C17.3791 11.0811 18.6228 11.6202 19.5346 12.5558C20.4464 13.4915 20.9529 14.7484 20.9448 16.0546C20.9366 17.3609 20.4144 18.6112 19.491 19.5354Z" stroke="white" stroke-width="0.5"/>
</svg>
