<svg width="32" height="32" viewBox="0 0 32 32" fill="none" xmlns="http://www.w3.org/2000/svg">
<path d="M20.8605 11.4926L26.9379 12.4955C27.1716 12.5338 27.3901 12.6367 27.5682 12.7923C27.7463 12.9479 27.8769 13.15 27.9456 13.3759C28.0142 13.6018 28.0181 13.8423 27.9565 14.0702C27.8949 14.2981 27.7701 14.5044 27.5969 14.6654L23.103 18.8623C22.9526 19.0025 22.8388 19.1772 22.7717 19.3713C22.7046 19.5653 22.6863 19.7726 22.7182 19.9754L23.6391 26.0477C23.6741 26.2809 23.643 26.5192 23.5493 26.7358C23.4556 26.9523 23.3032 27.1385 23.1089 27.2732C22.9147 27.4079 22.6867 27.4859 22.4504 27.4983C22.214 27.5106 21.9788 27.4568 21.7715 27.3431L16.3764 24.3808C16.1966 24.2814 15.9954 24.2271 15.7898 24.2227C15.5841 24.2183 15.3801 24.264 15.1962 24.3556L9.68859 27.1054C9.47693 27.2113 9.2396 27.2561 9.00374 27.2346C8.76787 27.2131 8.54298 27.1262 8.3541 26.9838C8.16521 26.8414 8.01994 26.6492 7.93505 26.4289C7.85016 26.2086 7.82884 25.9688 7.87356 25.7371L9.03449 19.7083C9.07375 19.5068 9.06276 19.2988 9.00275 19.1025C8.94273 18.9061 8.83565 18.7273 8.69032 18.5819L4.36548 14.212C4.19931 14.044 4.08354 13.833 4.03124 13.6029C3.97894 13.3729 3.99262 13.1329 4.06992 12.9099C4.14722 12.6869 4.28547 12.49 4.46913 12.3411C4.65279 12.1923 4.87454 12.0973 5.10935 12.0673L11.2244 11.3063C11.4285 11.2801 11.623 11.2053 11.7918 11.0879C11.9605 10.9706 12.0979 10.8141 12.1929 10.6323L15.0286 5.18244C15.1374 4.97292 15.3032 4.79802 15.5066 4.67741C15.7101 4.55681 15.9434 4.49552 16.1801 4.50026C16.4168 4.505 16.6471 4.57569 16.8456 4.70434C17.044 4.833 17.2026 5.01445 17.3028 5.22815L19.9177 10.7843C20.0059 10.9693 20.138 11.1304 20.3021 11.2537C20.4662 11.3771 20.6577 11.459 20.8605 11.4926V11.4926Z" stroke="white" stroke-miterlimit="10"/>
</svg>
