<svg width="16" height="16" viewBox="0 0 16 16" fill="none" xmlns="http://www.w3.org/2000/svg">
<circle cx="8" cy="8" r="7.5" stroke="white"/>
<path d="M7.79736 9.59076C7.79736 9.13076 7.79736 8.67088 7.79736 8.21088C7.79906 8.12563 7.79139 8.04029 7.77441 7.95673C7.76638 7.91259 7.74849 7.871 7.72217 7.83466C7.69585 7.79832 7.66199 7.76817 7.62256 7.74677C7.58312 7.72537 7.53944 7.71314 7.49463 7.71088C7.44982 7.70862 7.40516 7.7165 7.36377 7.73383C7.30077 7.74883 7.24073 7.77779 7.17773 7.79779C7.1489 7.81132 7.11553 7.81314 7.08545 7.80268C7.05537 7.79221 7.03082 7.77039 7.0166 7.74189C7.0058 7.71818 7 7.69225 7 7.6662C7 7.64015 7.0058 7.61447 7.0166 7.59076C7.22789 7.29249 7.51025 7.05189 7.83838 6.89081C7.95785 6.82694 8.0921 6.79513 8.22754 6.79828C8.36298 6.80144 8.49545 6.83951 8.61182 6.90888C8.67653 6.94898 8.73072 7.00383 8.77002 7.06903C8.80932 7.13424 8.83217 7.20793 8.8374 7.28388C8.8429 7.34271 8.84556 7.4018 8.84473 7.46088C8.84473 8.35488 8.84473 9.24876 8.84473 10.1428C8.84305 10.2379 8.8526 10.3329 8.87354 10.4257C8.87965 10.4625 8.89356 10.4976 8.91406 10.5288C8.93457 10.5599 8.9613 10.5865 8.99268 10.6066C9.02405 10.6268 9.05934 10.6402 9.09619 10.6459C9.13304 10.6516 9.17054 10.6496 9.20654 10.6398C9.29009 10.6232 9.3724 10.6003 9.45264 10.5717C9.48246 10.5578 9.51613 10.5551 9.54785 10.5639C9.57958 10.5727 9.60712 10.5925 9.62549 10.6198C9.6461 10.6458 9.65641 10.6786 9.65381 10.7116C9.65121 10.7446 9.63623 10.7754 9.61182 10.7978C9.42696 11.0326 9.20444 11.2354 8.95361 11.3979C8.84583 11.471 8.72379 11.5207 8.5957 11.5441C8.46761 11.5675 8.33613 11.5641 8.20947 11.5339C8.09736 11.5125 7.99631 11.4527 7.92334 11.3649C7.85037 11.2772 7.81011 11.1668 7.80957 11.0527C7.80157 10.5667 7.80957 10.0797 7.80957 9.59369L7.79736 9.59076Z" fill="white"/>
<path d="M7.64159 5.60995C7.64062 5.49051 7.67527 5.37344 7.74072 5.27352C7.80616 5.17361 7.89939 5.09526 8.00927 5.04842C8.11914 5.00159 8.2405 4.98836 8.3579 5.01034C8.4753 5.03232 8.58344 5.08855 8.66894 5.17196C8.75443 5.25537 8.8135 5.36227 8.83837 5.47909C8.86324 5.59591 8.85269 5.71746 8.80859 5.82845C8.76448 5.93945 8.68859 6.03498 8.59032 6.10287C8.49205 6.17076 8.37625 6.20782 8.25683 6.2098C8.177 6.21099 8.0976 6.19638 8.02343 6.16683C7.94926 6.13729 7.88136 6.09344 7.82421 6.03768C7.76706 5.98193 7.72179 5.91555 7.69042 5.84213C7.65905 5.7687 7.64238 5.68979 7.64159 5.60995Z" fill="white"/>
</svg>
