<svg width="18" height="18" viewBox="0 0 18 18" fill="none" xmlns="http://www.w3.org/2000/svg">
<path d="M9.00417 1H8.99688C6.87597 1 4.84202 1.84268 3.34231 3.34297C1.84261 4.84326 1 6.87827 1 9C1 11.1217 1.84261 13.1565 3.34231 14.6568C4.84202 16.1571 6.87597 17 8.99688 17H9.00312C11.124 17 13.158 16.1571 14.6577 14.6568C16.1574 13.1565 17 11.1217 17 9C17 6.87827 16.1574 4.84326 14.6577 3.34297C13.158 1.84268 11.124 1 9.00312 1H9.00417ZM1.66641 8.31406C1.74692 7.35031 2.02434 6.41325 2.48119 5.56094C3.16269 4.26489 4.21892 3.2046 5.5123 2.51875L6.59677 1.9375L5.95692 2.99036C5.01684 4.62732 4.49896 6.47265 4.45021 8.3599L4.43303 8.67995H1.63204L1.66641 8.31406ZM5.59352 15.5044C4.48832 14.9468 3.54646 14.1122 2.85969 13.082C2.18476 12.0676 1.7738 10.9007 1.66432 9.68698L1.62996 9.31875H4.43512L4.45334 9.6388C4.50167 11.525 5.02106 13.3692 5.96421 15.0031L6.39112 15.707L5.59352 15.5044ZM8.67357 16.394L8.21645 16.2203C7.78905 16.0541 7.40773 15.7878 7.10439 15.4438C6.23036 14.429 5.63797 13.2023 5.38735 11.8865C5.22646 11.1938 5.12843 10.4879 5.09423 9.77761C5.09423 9.74987 5.09423 9.72104 5.09423 9.6901V9.32005H8.67357V16.394ZM8.67357 8.68203H5.04842L5.07914 8.31615C5.0866 8.22335 5.09408 8.13262 5.10048 8.04089C5.11541 7.84355 5.13169 7.63988 5.15515 7.43828C5.25165 6.52652 5.46251 5.63057 5.78303 4.77161C6.06774 3.96123 6.50853 3.21436 7.07992 2.57318C7.38903 2.22 7.77843 1.94657 8.21541 1.77552L8.6694 1.60573L8.67357 8.68203ZM9.31342 1.60911L9.77001 1.77969C10.0926 1.9044 10.3889 2.08822 10.6441 2.32161C11.2179 2.85484 11.671 3.50464 11.9728 4.2276C12.4122 5.20658 12.6943 6.24871 12.8095 7.31563C12.835 7.53963 12.8568 7.75939 12.8813 7.99193C12.892 8.09859 12.9013 8.20531 12.9131 8.31198L12.9516 8.68411H9.31342V1.60911ZM10.6535 15.6729C10.3967 15.9107 10.0971 16.097 9.77001 16.2214L9.31342 16.3951V9.32109H12.9386L12.9068 9.68802C12.8983 9.78082 12.8908 9.87363 12.8844 9.96537C12.8684 10.1638 12.8522 10.3664 12.8287 10.568C12.7316 11.4796 12.5208 12.3755 12.2008 13.2346C11.8924 14.1603 11.3638 14.997 10.6603 15.6729H10.6535ZM16.3253 9.68047C16.2181 10.8946 15.808 12.0624 15.1325 13.0768C14.457 14.0912 13.5378 14.9198 12.4591 15.4865L11.4204 15.9961L12.0228 15.0086C12.9713 13.3744 13.4919 11.5269 13.5368 9.63776L13.556 9.31771H16.3508L16.3253 9.68047ZM16.3622 8.68307H13.5581L13.5378 8.36302C13.4907 7.42152 13.3478 6.48752 13.1114 5.575C12.8772 4.66165 12.5057 3.78911 12.0098 2.98724L11.3704 1.97813L12.4429 2.50495C13.5217 3.07391 14.442 3.90311 15.12 4.91719C15.798 5.93127 16.2125 7.09832 16.3263 8.31302L16.3622 8.68307Z" fill="white" stroke="white" stroke-width="0.1"/>
</svg>
