<svg width="19" height="19" viewBox="0 0 19 19" fill="none" xmlns="http://www.w3.org/2000/svg">
<path d="M1.19389 11.8859C1.09365 11.3463 1.03195 10.8003 1.00927 10.2522L1.00102 10.1332C0.996834 10.0691 1.00554 10.0049 1.02664 9.94419C1.04774 9.88348 1.08082 9.82747 1.12397 9.77944C1.16711 9.73139 1.21948 9.69228 1.27804 9.66429C1.3366 9.63631 1.40018 9.62002 1.46514 9.61639C1.59762 9.6033 1.72996 9.64251 1.83319 9.72545C1.93641 9.80838 2.00212 9.92829 2.01592 10.0589C2.03325 10.1656 2.04255 10.2734 2.04376 10.3814C2.07679 11.3833 2.31782 12.3679 2.75193 13.2744C3.18603 14.1808 3.80399 14.9898 4.56764 15.6514C5.33128 16.313 6.22438 16.813 7.19172 17.1207C8.15907 17.4284 9.1801 17.5371 10.1917 17.4402C11.566 17.3408 12.8788 16.8385 13.9615 15.9977C15.1024 15.1828 15.9766 14.0565 16.4766 12.7576C16.9765 11.4587 17.0803 10.044 16.7751 8.68763C16.5845 7.62997 16.1499 6.62969 15.5048 5.76414C14.8597 4.89859 14.0215 4.19094 13.0549 3.6959C12.1169 3.17837 11.0746 2.8717 10.0025 2.79784C8.93034 2.72398 7.85491 2.88477 6.85313 3.26866C6.69739 3.3236 6.54372 3.39173 6.38386 3.46294C6.30444 3.49854 6.22192 3.53517 6.13322 3.57281L5.70004 3.75693L6.16622 3.8251L6.69532 3.90039C7.07694 3.95329 7.43689 4.00212 7.79376 4.06722C7.86735 4.07853 7.93753 4.10559 7.99937 4.14654C8.0612 4.18749 8.11318 4.24134 8.15165 4.30424C8.19017 4.37108 8.21337 4.44542 8.2196 4.52205C8.22584 4.59868 8.21496 4.67571 8.18775 4.74775C8.09183 5.02241 7.84533 5.13534 7.45237 5.08346C6.40139 4.94308 5.44013 4.8088 4.51188 4.67147C4.42327 4.67245 4.3357 4.65263 4.25638 4.61367C4.17706 4.5747 4.10828 4.51768 4.05569 4.44733C4.0031 4.37698 3.96822 4.29532 3.95393 4.20906C3.93964 4.12281 3.94635 4.03444 3.97349 3.95124C4.12098 2.88209 4.28291 1.81497 4.41184 0.919776C4.43757 0.791453 4.51131 0.677387 4.61841 0.600235C4.72551 0.523084 4.85812 0.488509 4.98988 0.503377C5.12165 0.518244 5.24292 0.58147 5.32958 0.680485C5.41625 0.779501 5.46197 0.907068 5.45766 1.03781C5.45766 1.1141 5.44219 1.19037 5.43084 1.27073L5.42259 1.33382C5.3834 1.62408 5.34386 1.91467 5.30398 2.20561L5.23281 2.72746H5.41331C5.4448 2.73094 5.47666 2.72675 5.50613 2.71526C5.54429 2.69899 5.58143 2.68068 5.61856 2.66236L5.63403 2.65423C6.81517 2.05674 8.12275 1.74304 9.45017 1.7387C9.68877 1.7387 9.92942 1.74887 10.1721 1.76922C12.3287 1.92031 14.3407 2.89379 15.7819 4.48328C16.9374 5.73237 17.6824 7.29724 17.9189 8.97197C18.1553 10.6467 17.8722 12.3528 17.1066 13.8658C16.3411 15.3787 15.1291 16.6276 13.6301 17.4481C12.1311 18.2686 10.4153 18.6223 8.70861 18.4625C6.78206 18.2973 4.9733 17.4779 3.59084 16.1442C2.36837 15.0005 1.53163 13.514 1.19389 11.8859Z" fill="white" stroke="white" stroke-width="0.3"/>
</svg>
